<?xml version="1.0" standalone="no"?>
<!DOCTYPE svg PUBLIC "-//W3C//DTD SVG 1.1//EN" "http://www.w3.org/Graphics/SVG/1.1/DTD/svg11.dtd" >
<svg>
<metadata>
Created by FontForge 20090622 at Mon Jan  2 10:28:05 2017
 By deploy user
Copyright (c) 2013 by dcoxy Medina Gregory. All rights reserved. 
You need my agreement for every diffusions, reproduction and commercial use. 
Thank you to contact me before: atelieroxydes@laposte.net
</metadata>
<defs>
<font id="darkforest" horiz-adv-x="474" >
  <font-face 
    font-family="dark forest"
    font-weight="400"
    font-stretch="normal"
    units-per-em="1000"
    panose-1="2 0 0 0 0 0 0 0 0 0"
    ascent="750"
    descent="-250"
    x-height="542.5"
    cap-height="699"
    bbox="-51.4619 -289 774 972.684"
    underline-thickness="50"
    underline-position="-50"
    unicode-range="U+0020-U+2212"
  />
<missing-glyph horiz-adv-x="300" 
 />
    <glyph glyph-name=".notdef" horiz-adv-x="300" 
 />
    <glyph glyph-name=".null" horiz-adv-x="0" 
 />
    <glyph glyph-name="nonmarkingreturn" horiz-adv-x="300" 
 />
    <glyph glyph-name="space" unicode=" " horiz-adv-x="300" 
 />
    <glyph glyph-name="space" unicode="&#xa0;" horiz-adv-x="300" 
 />
    <glyph glyph-name="E" unicode="E" horiz-adv-x="498" 
d="M452 121q6 0 9 -19t3 -41.5t-3 -41.5t-9 -19h-402q-19 0 -19 21v656q0 8 3.5 14t10.5 6h407q6 0 9 -18.5t3 -41t-3 -41t-9 -18.5h-304v-201h203q6 0 8 -19t1.5 -41.5t-4.5 -41t-10 -18.5h-35.5h-52h-57.5h-53v-136h304v0z" />
    <glyph glyph-name="F" unicode="F" horiz-adv-x="472" 
d="M452 699q6 0 9 -19t3 -41.5t-3 -41t-9 -18.5h-304v-201h203q6 0 8 -19t1 -41.5t-4.5 -41t-9.5 -18.5q-12 0 -36 -0.5t-52 -0.5t-57.5 0.5t-52.5 0.5v-146.5t1 -99.5q0 -6 -18.5 -9t-40.5 -3t-40.5 3t-18.5 9v666q0 8 4 14.5t10 6.5h43.5h72h86.5h87h72.5h45.5z" />
    <glyph glyph-name="G" unicode="G" horiz-adv-x="496" 
d="M461 14q0 -5 -4 -9.5t-11 -4.5h-407q-9 0 -9 11v661q0 10 4 17.5t14 7.5h43.5h71.5h85h86t72.5 0.5t44.5 0.5q6 0 9 -19t3 -41.5t-3 -41t-9 -18.5h-304v-457h193q0 32 0.5 67.5t0.5 67.5q-39 1 -75.5 1h-54.5q-6 0 -9 18.5t-3 41t3 41.5t9 19h238q12 0 12 -10v-353z" />
    <glyph glyph-name="H" unicode="H" horiz-adv-x="498" 
d="M468 687q0 -37 -0.5 -94t-0.5 -122.5v-135v-132.5t0.5 -113.5t0.5 -77.5q0 -6 -18.5 -9t-40.5 -3t-40.5 3t-18.5 9v245h-44.5t-55 0.5t-56.5 0.5h-47v-146.5t1 -99.5q0 -6 -18.5 -9t-40.5 -3t-40.5 3t-18.5 9v674q0 6 18.5 9t40.5 3t40.5 -3t18.5 -9q-1 -50 -1 -133v-175
h203v309q0 6 18.5 9t40.5 3t40.5 -3t18.5 -9z" />
    <glyph glyph-name="I" unicode="I" horiz-adv-x="175" 
d="M147 687q0 -37 -0.5 -94t-0.5 -122.5v-135v-132.5t0.5 -113.5t0.5 -77.5q0 -6 -18.5 -9t-40.5 -3t-40.5 3t-18.5 9v675q0 6 18.5 9t40.5 3t40.5 -3t18.5 -9z" />
    <glyph glyph-name="J" unicode="J" horiz-adv-x="496" 
d="M455 698q6 0 9 -19t3 -41.5t-3 -41t-9 -18.5h-9v-93v-118v-124.5v-112.5v-82.5v-33.5q0 -14 -13 -14h-390q-4 0 -8.5 2t-4.5 10v240q0 6 18.5 9t41 3t41.5 -3t19 -9v-132h178v107v121t0.5 121.5t0.5 108.5h-286q-6 0 -9 18.5t-3 41t3 41.5t9 19h412v0z" />
    <glyph glyph-name="K" unicode="K" horiz-adv-x="494" 
d="M215 350l70 -75.5l69.5 -74l62 -66.5l49.5 -52q4 -5 -7.5 -19.5t-27.5 -29.5t-31 -25.5t-19 -6.5l-40 42.5l-58 62l-68 73l-70 75.5v-75.5v-68t0.5 -56.5t0.5 -41q0 -6 -18.5 -9t-40.5 -3t-40.5 3t-18.5 9v675q0 6 18.5 9t40.5 3t40.5 -3t18.5 -9q-1 -41 -1 -104.5
v-136.5l70 75.5l68 73l58 62l40 42.5q4 4 19 -6.5t31 -25.5t27.5 -30t7.5 -19l-49.5 -52l-62 -67l-69.5 -74.5z" />
    <glyph glyph-name="L" unicode="L" horiz-adv-x="467" 
d="M448 121q6 0 9 -19t3 -41.5t-3 -41.5t-9 -19h-403q-17 0 -18 22v663q0 6 18.5 9t40 3t40 -3t18.5 -9v-564h89.5h91h76.5h47z" />
    <glyph glyph-name="M" unicode="M" horiz-adv-x="535" 
d="M507 678v-61.5v-97v-121.5v-133.5v-132.5v-120q0 -6 -18.5 -9t-40.5 -3t-40.5 3t-18.5 9q0 56 -1.5 168.5t-3.5 279.5q-17 -44 -32 -88l-31 -88q-2 -5 -19 -8t-37.5 -3t-37.5 2.5t-20 8.5q-4 7 -11.5 24.5l-16.5 40l-18 46l-16 41.5q-1 -43 -2 -102t-1.5 -119.5t-1 -115
t-0.5 -87.5q0 -6 -17.5 -9t-39 -3t-39 3t-17.5 9q0 28 0.5 82.5t0.5 122v140.5v137.5t-0.5 114t-0.5 69.5q0 7 10.5 11t26 6t34 2t34.5 -2t27.5 -5t12.5 -6q23 -58 45 -119.5l43 -120.5q22 60 46.5 120l48.5 120q2 4 14 7.5t28.5 5t36 1t35.5 -2.5t27 -6.5t11 -10.5z" />
    <glyph glyph-name="N" unicode="N" horiz-adv-x="488" 
d="M462 12q0 -5 -17 -8t-37.5 -3.5t-39 1.5t-21.5 8l-30 61l-49.5 100l-60.5 122.5l-63 127.5v-123v-117.5v-99.5v-69q0 -6 -18.5 -9t-40.5 -3t-40.5 3t-18.5 9v671q0 8 18.5 11.5t40.5 3t40.5 -4.5t18.5 -10l73 -147l31.5 -65l33 -68l32.5 -66l30 -59q0 59 0.5 120t0.5 116
v99v70q0 6 18.5 10t40 4.5t40 -3t18.5 -11.5v-671z" />
    <glyph glyph-name="O" unicode="O" horiz-adv-x="488" 
d="M462 20q0 -7 -2.5 -13.5t-12.5 -6.5h-407q-3 0 -8.5 3.5t-5.5 11.5v586v82q0 5 2.5 10.5t11.5 5.5h409q8 0 10.5 -5t2.5 -11v-663zM143 122q47 1 100.5 1t101.5 -1q0 48 -0.5 107t-0.5 120.5t0.5 121t0.5 108.5h-202v-457z" />
    <glyph glyph-name="P" unicode="P" horiz-adv-x="470" 
d="M461 284q0 -11 -3.5 -19t-16.5 -8h-299v-146.5t1 -98.5q0 -6 -18.5 -9t-40.5 -3t-40.5 3t-18.5 9v668q0 7 4 14t15 7h399q18 0 18 -26v-391zM343 377v202h-201v-202h201z" />
    <glyph glyph-name="Q" unicode="Q" horiz-adv-x="481" 
d="M445 698q8 0 10.5 -5t2.5 -11v-663q0 -7 -2.5 -13.5t-12.5 -6.5h-62q1 -1 1 -2t1 -2q2 -5 -14 -14.5t-37 -18t-39.5 -13t-21.5 1.5q-3 8 -8.5 20t-13.5 28h-213q-2 0 -8 3.5t-6 11.5v586v82q0 5 2.5 10.5t11.5 5.5h409zM285 215l18 -41l24 -53h14v457h-202v-457h56
l-11 25.5t-9 19.5q-2 5 14 15.5t36.5 19.5t38.5 14t21 0z" />
    <glyph glyph-name="R" unicode="R" horiz-adv-x="495" 
d="M467 81q3 -3 -9 -17.5t-28.5 -29.5t-32.5 -26t-19 -7l-51 54.5l-37 40l-29.5 33l-29.5 33.5l-36 40.5l-49 54.5h-5v-145.5t1 -99.5q0 -6 -18.5 -9t-40.5 -3t-40.5 3t-18.5 9v668q0 7 4 14t15 7h399q18 0 18 -26v-391q0 -11 -3.5 -19t-16.5 -8h-133l34 -39l32 -35.5
l39 -42.5zM342 378v201h-201v-201h201z" />
    <glyph glyph-name="S" unicode="S" horiz-adv-x="490" 
d="M464 22q0 -22 -18 -22h-408q-6 0 -8.5 18.5t-2.5 40.5t3.5 40.5t9.5 18.5h306v139h-297q-10 0 -14.5 4t-4.5 16v401q0 10 5 16.5t14 6.5h402q6 0 9.5 -19t3.5 -42t-2.5 -42t-8.5 -19h-306v-202h299q8 0 13 -6t5 -14v-335z" />
    <glyph glyph-name="T" unicode="T" horiz-adv-x="463" 
d="M437 699q6 0 9 -19t3 -41.5t-3 -41t-9 -18.5h-151v-100v-109.5v-110v-102t0.5 -85.5t0.5 -60q0 -6 -18.5 -9t-40.5 -3t-40.5 3t-18.5 9v567h-143q-6 0 -9 18.5t-3 41t3 41.5t9 19h411v0z" />
    <glyph glyph-name="U" unicode="U" horiz-adv-x="482" 
d="M460 20q0 -12 -8.5 -16t-13.5 -4h-402q-5 0 -9.5 4t-4.5 11v673q0 6 18.5 9t41 3t41 -3t18.5 -9q0 -44 -0.5 -113.5t-0.5 -149t0.5 -159.5t0.5 -144h201v566q0 6 18.5 9t40.5 3t40.5 -3t18.5 -9v-668z" />
    <glyph glyph-name="V" unicode="V" horiz-adv-x="545" 
d="M419 699q1 5 19.5 2.5t39.5 -9t38 -15t15 -14.5l-49 -162.5l-52.5 -167.5l-53.5 -167l-52 -161q-1 -3 -16 -4t-33 -1t-33 1t-16 4l-52.5 161l-55.5 167.5l-54.5 168l-49.5 162.5q-2 6 15 14.5t38 15t39 9.5t20 -3q33 -111 71.5 -229l76.5 -233l75 232.5z" />
    <glyph glyph-name="W" unicode="W" horiz-adv-x="519" 
d="M22 20v62v98.5v123v134.5v133.5v120.5q0 6 18.5 8.5t41 2.5t41 -2.5t18.5 -8.5q0 -57 -1 -171.5t1 -281.5l31.5 87.5l31.5 88.5q1 5 18 8t37.5 3t38 -2.5t20.5 -8.5q4 -7 11.5 -25l16.5 -40.5l18 -46t15 -41.5q1 29 1 66t0.5 77t0 81.5t-0.5 79.5t-0.5 70.5t-0.5 55.5
q0 6 18.5 8.5t41 2.5t41 -2.5t18.5 -8.5q0 -28 -0.5 -83.5t-0.5 -123v-141.5v-139t0.5 -115t0.5 -70q0 -11 -22 -15.5t-48.5 -4.5t-49.5 4t-26 10l-44.5 120l-43.5 121l-46 -120.5l-48 -119.5q-2 -4 -13.5 -7.5t-28 -5t-35 -1.5t-34.5 2t-26.5 6t-10.5 11z" />
    <glyph glyph-name="X" unicode="X" horiz-adv-x="482" 
d="M462 70q3 -6 -11.5 -19t-33 -25.5t-36 -20.5t-20.5 -2l-52 95.5l-67 124.5l-61 -111l-59 -110q-3 -6 -20 1.5t-36.5 19.5t-34.5 24.5t-12 18.5l76.5 141l78.5 143l-83.5 152.5l-71.5 129.5q-3 5 11.5 18.5t33.5 26t36.5 20.5t20.5 2l19.5 -35.5l28 -52l34.5 -64l39 -71.5
l59 112l58 111q3 6 20 -1t36.5 -19t34.5 -24.5t12 -18.5l-74 -143.5l-78 -143.5l47.5 -87.5l43.5 -79l35.5 -65.5z" />
    <glyph glyph-name="Y" unicode="Y" horiz-adv-x="473" 
d="M356 698q3 5 20.5 -2t36.5 -19t33.5 -24.5t11.5 -18.5l-40.5 -72.5l-43.5 -75.5l-43 -75l-39 -71v-332q0 -4 -17.5 -6t-39 -2t-39 2t-17.5 6q-1 75 -1 161.5t1 175.5l-40 68l-42 73l-42.5 73.5l-40.5 69.5q-3 5 10.5 19t31.5 27.5t35 22t21 2.5l67 -107l65 -109
l56.5 106.5z" />
    <glyph glyph-name="Z" unicode="Z" horiz-adv-x="488" 
d="M452 120q6 0 9 -19t3 -41.5t-3 -41t-9 -18.5q-16 0 -47.5 0.5t-71 0.5h-83.5h-85t-75.5 -0.5t-54.5 -0.5q-6 0 -8 17t-1.5 38t2.5 40t5 24q1 2 16 26l38.5 62.5l53 87l60 99.5l59.5 99.5l52 86.5h-276q-6 0 -9 19t-3 41.5t3 41.5t9 19h411q6 0 8.5 -17t2 -39t-3 -41.5
t-4.5 -24.5l-136.5 -230l-138.5 -229h277v0z" />
    <glyph glyph-name="a" unicode="a" horiz-adv-x="469" 
d="M448 511v-21.5v-54v-76v-87v-87.5v-77.5v-57v-25.5q0 -9 -2.5 -17t-10.5 -8h-404q-8 0 -11 5t-3 11v280q0 8 2.5 15t11.5 7h299v104h-265q-6 0 -8.5 19t-2 42t3.5 42t9 19h42h65.5h77.5h77.5h65.5h42q10 0 10.5 -11.5t0.5 -21.5zM330 119v79h-196v-79h196z" />
    <glyph glyph-name="b" unicode="b" horiz-adv-x="471" 
d="M460 21q0 -10 -5.5 -15.5t-10.5 -5.5h-412q-4 0 -8.5 4t-4.5 12v667q0 6 18.5 9t40.5 3t40.5 -3t18.5 -9q-1 -26 -1 -61.5v-77.5h310q6 0 10 -6.5t4 -11.5v-505zM342 122v301h-206v-301h206z" />
    <glyph glyph-name="c" unicode="c" horiz-adv-x="479" 
d="M445 122q6 0 8.5 -19t2.5 -42t-3 -42t-9 -19h-410q-8 0 -11.5 6.5t-3.5 14.5v503q0 7 4.5 13.5t14.5 6.5h407q6 0 9 -19t3 -41.5t-3 -41t-9 -18.5q-17 0 -52 0.5t-78 0.5t-90 -0.5t-89 -0.5v-302h309v0z" />
    <glyph glyph-name="d" unicode="d" horiz-adv-x="470" 
d="M451 16q0 -16 -19 -16h-407q-15 0 -15 16v510q0 13 6.5 15.5t12.5 2.5h305v77.5t-1 61.5q0 6 18.5 9t40.5 3t40.5 -3t18.5 -9v-667zM334 122v302h-206v-302h206z" />
    <glyph glyph-name="e" unicode="e" horiz-adv-x="476" 
d="M136 196v-78h89.5h91h76.5h47q6 0 9 -18.5t3.5 -40.5t-2.5 -40.5t-9 -18.5h-404q-12 0 -15 7.5t-3 15.5v496q0 8 4 16.5t16 8.5h398q11 0 13 -8.5t2 -14.5v-308q0 -5 -2 -11t-10 -6h-304zM136 423v-107h196v107h-196z" />
    <glyph glyph-name="f" unicode="f" horiz-adv-x="459" 
d="M440 545q6 0 9 -19t3 -41.5t-3 -41t-9 -18.5h-303v-107h202q6 0 8 -19t1 -41.5t-4.5 -41t-9.5 -18.5q-12 0 -36 -0.5t-52 -0.5t-57 0.5t-52 0.5q0 -59 -0.5 -106t0.5 -80q0 -6 -18.5 -9t-40.5 -3t-40.5 3t-18.5 9v512q0 8 2.5 14.5t11.5 6.5h407v0z" />
    <glyph glyph-name="g" unicode="g" horiz-adv-x="489" 
d="M471 19q0 -19 -14 -19h-421q-7 0 -12 5t-5 16v503q0 6 3.5 12.5t15.5 7.5h407q6 0 9 -19t3 -41.5t-3 -41t-9 -18.5h-309v-302h215v76h-130q-6 0 -9.5 18.5t-3.5 41t2.5 41t8.5 18.5h53h68.5h67.5h50q8 0 10.5 -7t2.5 -12v-279z" />
    <glyph glyph-name="h" unicode="h" horiz-adv-x="476" 
d="M457 533q0 -56 -0.5 -128.5t-0.5 -146t0.5 -139.5t0.5 -107q0 -6 -18.5 -9t-40.5 -3t-40.5 3t-18.5 9v186h-203v-105.5t1 -80.5q0 -6 -18.5 -9t-40.5 -3t-40.5 3t-18.5 9v521q0 6 18.5 9t40.5 3t40.5 -3t18.5 -9q-1 -45 -1 -100v-115h203v215q0 6 18.5 9t40.5 3t40.5 -3
t18.5 -9z" />
    <glyph glyph-name="i" unicode="i" horiz-adv-x="155" 
d="M137 536q0 -56 -0.5 -129t-0.5 -147t0.5 -140.5t0.5 -107.5q0 -6 -18.5 -9t-40.5 -3t-40.5 3t-18.5 9v524q0 6 18.5 9t40.5 3t40.5 -3t18.5 -9z" />
    <glyph glyph-name="j" unicode="j" horiz-adv-x="479" 
d="M445 543q6 0 9 -18.5t3 -41t-3 -41t-9 -18.5q-1 0 -2.5 -0.5t-5.5 -0.5v-403q0 -8 -2.5 -14t-9.5 -6h-389q-7 0 -11 5.5t-4 11.5v235q0 6 18.5 9t41 3t41.5 -3t19 -9v-132h178v304h-80.5t-81.5 -0.5t-72 -0.5h-52q-6 0 -8.5 18.5t-2.5 41t2.5 41.5t8.5 19h43.5h78.5h95
h93h71.5h30.5z" />
    <glyph glyph-name="k" unicode="k" horiz-adv-x="477" 
d="M380 544q5 4 19 -8.5t27.5 -30t22.5 -33.5t5 -20q-45 -35 -101.5 -73l-119.5 -81l53.5 -52.5l57 -55.5l56.5 -55.5l52 -52.5q4 -5 -7.5 -19.5t-27.5 -29.5t-31 -25.5t-19 -6.5l-48 47.5l-61 59.5l-64.5 62.5l-57.5 57.5v-121.5t1 -93.5q0 -6 -18.5 -9t-40.5 -3t-40.5 3
t-18.5 9v519q0 6 18.5 9t40.5 3t40.5 -3t18.5 -9q-1 -35 -1 -75.5v-85.5l71 49l68.5 48l60 42.5t44.5 33.5z" />
    <glyph glyph-name="l" unicode="l" horiz-adv-x="457" 
d="M440 122q6 0 8.5 -19t2 -42t-4 -42t-9.5 -19h-404q-9 0 -11.5 6.5t-2.5 14.5v510q0 6 18.5 9t40 3t40 -3t18.5 -9v-92.5v-106v-108.5v-102h304v0z" />
    <glyph glyph-name="m" unicode="m" horiz-adv-x="518" 
d="M494 526q0 -29 1 -82.5t2 -122t1.5 -148t0.5 -161.5q0 -6 -18.5 -9t-40.5 -3t-40.5 3t-18.5 9q0 28 -0.5 46.5t-1.5 46.5t-1.5 74t-1.5 129q-17 -44 -32 -88l-31 -88q-2 -5 -19 -8t-37.5 -3t-37.5 2.5t-20 8.5q-4 7 -11.5 24.5l-16.5 40l-18 46l-16 41.5q-1 -43 -2 -78.5
t-1.5 -67.5l-1 -62.5t-0.5 -63.5q0 -6 -17.5 -9t-39 -3t-39 3t-17.5 9q0 28 0.5 71.5t0.5 93.5v103.5v101t-0.5 86t-0.5 58.5q0 11 22 15t48.5 4t49.5 -4t25 -9q23 -58 45 -119.5l43 -120.5q22 60 46.5 120.5l48.5 119.5q3 7 26 10.5t50 3t49 -5t22 -14.5z" />
    <glyph glyph-name="n" unicode="n" horiz-adv-x="477" 
d="M455 531q0 -57 0.5 -129t0.5 -144v-137t-1 -109q0 -6 -17 -8.5t-38 -2.5t-39.5 2t-20.5 7q-9 18 -30 50.5l-49.5 74l-61 88l-63.5 91.5v-87.5v-83t0.5 -73t0.5 -58.5q0 -6 -18.5 -9t-40.5 -3t-40.5 3t-18.5 9v519q0 8 17 12t38.5 4t40.5 -4.5t22 -11.5l73 -113
l31.5 -49.5l33 -50.5l32.5 -48.5l30 -42.5q0 42 0.5 85.5t0.5 83.5v75v60q0 6 18.5 10t40 4.5t40 -3t18.5 -11.5z" />
    <glyph glyph-name="o" unicode="o" 
d="M455 14q0 -5 -3 -9.5t-8 -4.5h-412q-7 0 -10 4.5t-3 9.5v503q0 10 3 18t16 8h399q9 0 13.5 -8t4.5 -17v-98v-111v-112.5v-103.5v-79zM337 120v303h-201v-303h201z" />
    <glyph glyph-name="p" unicode="p" horiz-adv-x="466" 
d="M455 120q0 -6 -3 -11.5t-12 -5.5h-51t-76 0.5t-88 0.5h-88q0 -27 -0.5 -50.5t0.5 -41.5q0 -6 -18.5 -9t-40.5 -3t-40.5 3t-18.5 9v518q0 5 3 10t10 5h408q9 0 12 -6.5t3 -13.5v-405zM337 224v201h-201v-201h201z" />
    <glyph glyph-name="q" unicode="q" horiz-adv-x="470" 
d="M452 13q0 -5 -3 -9.5t-8 -4.5h-72l3 -6q2 -5 -14 -15t-37 -18.5t-39.5 -13t-21.5 1.5q-4 8 -9.5 21t-13.5 30h-208q-7 0 -10 4.5t-3 9.5v503q0 10 3 18t16 8h399q9 0 13.5 -8t4.5 -17v-504zM274 212l18 -40.5l24 -52.5h18v303h-201v-303h51l-11 25t-9 19q-2 5 14 15.5
t36.5 19.5t38.5 14t21 0z" />
    <glyph glyph-name="r" unicode="r" horiz-adv-x="482" 
d="M460 215q0 -6 -4.5 -8.5t-10.5 -2.5q-14 0 -40.5 -0.5t-60.5 0.5l19.5 -22t22.5 -24.5l30 -32l41 -44.5q3 -3 -9 -17.5t-28.5 -29.5t-32.5 -26t-19 -7l-46 49l-31.5 34.5l-24 26l-21.5 24.5l-25.5 29l-35.5 40h-47q0 -58 -0.5 -108t0.5 -84q0 -6 -18.5 -9t-40.5 -3
t-40.5 3t-18.5 9v515q0 8 3 14t14 6h404q11 0 15.5 -8t4.5 -17v-307zM136 427v-103h206v103h-206z" />
    <glyph glyph-name="s" unicode="s" horiz-adv-x="485" 
d="M465 18q0 -19 -22 -19h-409q-6 0 -8.5 19t-2.5 41.5t3.5 41.5t9.5 19h57.5h79.5h88.5h85.5v80h-311q-8 0 -8.5 8t-0.5 15v300q0 7 4 13.5t15 6.5h403q6 0 9 -19t3 -41.5t-3 -41t-9 -18.5h-305q0 -29 -0.5 -52.5t0.5 -50.5h308q6 0 9.5 -3.5t3.5 -8.5v-290z" />
    <glyph glyph-name="t" unicode="t" horiz-adv-x="460" 
d="M435 544q6 0 9 -19t3 -41.5t-3 -41t-9 -18.5q-20 0 -60.5 0.5t-90.5 0.5v-113.5v-115t0.5 -103.5t0.5 -81q0 -6 -18.5 -9t-40.5 -3t-40.5 3t-18.5 9v413q-45 0 -83 -0.5t-60 -0.5q-6 0 -9 18.5t-3 41t3 41.5t9 19q13 0 45 0.5t73 0.5h87.5h87.5t73 -0.5t45 -0.5z" />
    <glyph glyph-name="u" unicode="u" 
d="M455 532v-78.5v-106.5v-116v-106.5v-78.5v-32q0 -7 -3.5 -10.5t-8.5 -3.5h-412q-12 0 -12 14v518q0 6 18.5 9t40 3t40 -3t18.5 -9v-92.5v-106.5v-110v-103h201v106.5v115.5t0.5 107t0.5 83q0 6 18.5 9t40 3t40 -3t18.5 -9z" />
    <glyph glyph-name="v" unicode="v" horiz-adv-x="447" 
d="M322 538q2 6 20.5 3.5t39.5 -9t37.5 -15.5t14.5 -15q-23 -78 -42 -136l-37 -112.5l-37.5 -113l-44.5 -135.5q-1 -3 -16 -4t-33 -1t-33 1t-16 4l-45 135.5l-38 113l-37 113t-42 136.5q-2 6 14.5 15t37.5 15.5t39.5 9t20.5 -3.5l25 -77.5l22.5 -69l23.5 -71.5l28 -84
l27.5 83l22 67.5l22 67.5z" />
    <glyph glyph-name="w" unicode="w" horiz-adv-x="522" 
d="M19 21v82.5v122v148.5v162q0 6 18.5 8.5t40.5 2.5t40.5 -2.5t18.5 -8.5q0 -28 0.5 -47t1 -46.5t1.5 -74t2 -129.5q17 44 32 88.5l31 88.5q2 5 19 7.5t37 3t37.5 -2t20.5 -8.5q4 -7 11.5 -25l16.5 -40.5l18 -46l16 -41.5q1 43 2 78.5t1.5 67.5l1 62.5t0.5 64.5
q0 6 17.5 8.5t39 2.5t39 -2.5t17.5 -8.5v-71.5t0.5 -94l1 -104t0.5 -101t-0.5 -86t-1.5 -58.5q-1 -13 -23 -17.5t-48.5 -4t-49 5.5t-24.5 10l-45 120l-43 121q-22 -60 -46.5 -120.5l-48.5 -119.5q-2 -4 -14 -7.5t-28.5 -5t-36 -1.5t-35.5 2t-27 6t-11 11z" />
    <glyph glyph-name="x" unicode="x" horiz-adv-x="508" 
d="M399 543q4 5 20 -5.5t32.5 -26.5t27.5 -31.5t7 -20.5l-85.5 -102l-71.5 -86l69.5 -90.5l83.5 -108.5q4 -5 -9 -19t-31.5 -27t-36 -21t-22.5 -2l-72 93.5l-61 80.5l-65.5 -79.5l-76.5 -93.5q-7 -9 -23 1t-31.5 26.5t-26 34t-6.5 22.5l83 101.5l71 85.5l-69 91.5l-81 107.5
q-4 5 9.5 18.5t32 26.5t36 21.5t21.5 2.5l70.5 -93.5l59.5 -79.5l67 79.5z" />
    <glyph glyph-name="y" unicode="y" horiz-adv-x="472" 
d="M356 543q3 5 20 -2t36.5 -19t34 -24.5t11.5 -18.5q-17 -34 -38 -71.5l-43.5 -76l-44.5 -75.5t-40 -71q0 -20 0.5 -34.5t0.5 -32.5t-0.5 -43.5t-1.5 -66.5q0 -4 -17.5 -6t-38.5 -2t-38.5 2t-17.5 6q0 35 -0.5 57.5t-0.5 41v37.5v46l-40 67.5l-42 71.5l-42 71.5l-40 68.5
q-3 5 10.5 19t31.5 27.5t35 22t21 3.5q34 -53 64.5 -105.5l62.5 -106.5q29 55 59 106.5t58 107.5z" />
    <glyph glyph-name="z" unicode="z" horiz-adv-x="491" 
d="M456 119q6 0 9.5 -19t3.5 -41.5t-3 -41t-9 -18.5q-16 0 -47.5 0.5t-71 0.5h-83.5h-85t-75 -0.5t-54 -0.5q-6 0 -9 16.5t-3.5 37.5t1.5 39.5t6 23.5l124 150l129 156h-79.5h-75.5t-61.5 0.5t-38.5 0.5q-6 0 -9 18.5t-3 41t3 41.5t9 19q20 0 54 -0.5t74.5 -0.5h84h82.5
t70.5 0.5t47.5 0.5q6 0 8.5 -16t3 -37t-2 -40t-6.5 -25l-71 -84.5l-62 -76l-58.5 -72l-59.5 -73.5h257v0z" />
    <glyph glyph-name="zero" unicode="0" horiz-adv-x="504" 
d="M470 20q0 -8 -4 -14t-12 -6h-406q-6 0 -10.5 5t-4.5 15v656q0 9 4 15t16 6h403q7 0 10.5 -5.5t3.5 -10.5v-661zM150 120q47 1 100.5 1t101.5 -1v457h-201q0 -51 -0.5 -110.5t-0.5 -120.5v-119.5v-106.5z" />
    <glyph glyph-name="one" unicode="1" horiz-adv-x="489" 
d="M458 121q6 0 9 -19t3 -41.5t-3 -41.5t-9 -19h-412q-6 0 -9 19t-2.5 41.5t3.5 41.5t9 19h146q0 40 -0.5 89t-0.5 101t0.5 104.5t0.5 99.5l-45 -44l-32 -32q-4 -4 -19.5 7t-31.5 27t-27 31.5t-7 19.5l37.5 37.5l49 48.5l48 48t35.5 35q2 3 19.5 4.5t37.5 1.5t36 -2.5
t16 -8.5q1 -41 1 -111.5v-151.5t-0.5 -162t-0.5 -142h148v0z" />
    <glyph glyph-name="two" unicode="2" horiz-adv-x="509" 
d="M461 120q6 0 9 -19t3 -41.5t-3 -41t-9 -18.5h-411q-9 1 -11 7.5t-2 11.5v28v63.5v81v80.5v62v26q0 5 3.5 9.5t8.5 4.5h304q1 48 1 100t-1 104q-40 0 -87.5 0.5t-91 0.5t-78 -0.5t-48.5 -0.5q-6 0 -9 19t-3 41.5t3 41.5t9 19h47h69.5h81.5h83h73.5h53.5q14 0 14 -13v-413
q0 -5 -2 -11.5t-10 -6.5h-304v-135h307v0z" />
    <glyph glyph-name="three" unicode="3" horiz-adv-x="505" 
d="M470 679v-30v-75.5t0.5 -106t0.5 -121.5t0.5 -121t0.5 -105.5v-75.5v-30q0 -4 -1.5 -9t-9.5 -5h-412q-6 0 -9 18.5t-3.5 41t2.5 41t9 18.5h305v134h-186q-6 0 -9 18.5t-3 41t3 41t9 18.5h186v206h-90h-91h-77h-47q-6 0 -9 18.5t-3 41t3 41t9 18.5h408q14 0 14 -18z" />
    <glyph glyph-name="four" unicode="4" horiz-adv-x="481" 
d="M448 12q0 -6 -18.5 -9t-40 -3t-40 3t-18.5 9q0 30 -0.5 62.5t-0.5 64t0.5 60.5t0.5 53h-301q-8 0 -13 4.5t-5 10.5v419q0 6 18.5 9t40.5 3t40.5 -3t18.5 -9v-71v-81v-83.5v-78.5h204v153.5t-1 160.5q0 6 18 9t39.5 3t39.5 -3t18 -9v-674z" />
    <glyph glyph-name="five" unicode="5" horiz-adv-x="509" 
d="M472 19q0 -8 -4 -13.5t-12 -5.5h-408q-6 0 -9 18.5t-3 41t3 41.5t9 19h306v133h-301q-14 0 -14 14v52.5v82.5v94.5v89.5v68.5v29.5q0 14 14 14h408q6 0 9 -19t3 -41.5t-3 -41t-9 -18.5h-47.5h-77h-91h-89.5q-1 -53 -1 -105.5v-99.5h89.5t91 -0.5t76.5 -0.5h47q7 0 10 -5
t3 -11v-337z" />
    <glyph glyph-name="six" unicode="6" horiz-adv-x="504" 
d="M469 14q0 -14 -19 -14h-403q-10 0 -12 6t-2 14v662q0 8 4.5 11.5t9.5 3.5h409q6 0 9 -19t3 -41.5t-3 -41t-9 -18.5h-306v-203h304q10 -1 12.5 -7.5t2.5 -9.5v-343zM150 120q47 1 100.5 1t100.5 -1v133h-201v-133z" />
    <glyph glyph-name="seven" unicode="7" horiz-adv-x="476" 
d="M443 676v-31v-69v-95v-110v-113.5v-105v-85.5v-55q0 -6 -18.5 -9t-40.5 -3t-40.5 3t-18.5 9v567h-305q-6 0 -9 18.5t-3 41t3 41.5t9 19h408q11 0 13 -6t2 -17z" />
    <glyph glyph-name="eight" unicode="8" horiz-adv-x="503" 
d="M469 20q0 -20 -15 -20h-402q-8 0 -13.5 4t-5.5 16v656q0 8 3 14.5t11 6.5h404q10 0 14 -6.5t4 -14.5v-656zM150 577v-40.5v-58.5v-60v-45h201v204h-201zM351 120v133h-201v-133h201z" />
    <glyph glyph-name="nine" unicode="9" horiz-adv-x="505" 
d="M471 20q0 -11 -4.5 -15.5t-9.5 -4.5h-408q-6 0 -9 18.5t-3 41t3 41.5t9 19q13 0 47 0.5t77 0.5h91h90v129h-301q-10 0 -14 7.5t-4 12.5v408q0 7 5 13t15 6h397q9 0 14 -7t5 -12v-658zM354 370v207h-201v-207h201z" />
    <glyph glyph-name="OE" unicode="&#x152;" horiz-adv-x="795" 
d="M760 121q6 0 9 -19t3 -41.5t-3 -41.5t-9 -19h-727q-3 0 -8.5 3.5t-5.5 11.5v586v83q0 5 2.5 10t11.5 5h53h89.5h113h124h122h107h79.5h39q6 0 9 -19t3 -41.5t-3 -41t-9 -18.5h-305v-201h203q6 0 8.5 -19t1.5 -41.5t-4.5 -41.5t-9.5 -19h-199v-136h90h91h76.5h47.5z
M338 123q0 48 -0.5 106.5t-0.5 120t0.5 121t0.5 108.5h-202v-456h202z" />
    <glyph glyph-name="AE" unicode="&#xc6;" horiz-adv-x="787" 
d="M753 122q6 0 9 -19t3 -41.5t-3 -41.5t-9 -19h-402q-12 0 -15.5 6.5t-3.5 14.5v235h-45t-53.5 0.5t-53.5 0.5h-44v-146.5t1 -99.5q0 -6 -18.5 -9t-40.5 -3t-40.5 3t-18.5 9v666q0 11 6 16t13 5h343h128.5h115.5h86.5h41.5q6 0 9 -19t3 -41.5t-3 -41t-9 -18.5h-303v-93.5
t1 -107.5h201q6 0 8 -19t1 -41.5t-4.5 -41t-9.5 -18.5q-12 0 -35.5 -0.5t-51.5 -0.5t-57 0.5t-52 0.5v-136h302zM332 378v201h-196v-201h196z" />
    <glyph glyph-name="oe" unicode="&#x153;" horiz-adv-x="791" 
d="M755 119q6 0 9 -19t3 -41t-2.5 -40.5t-8.5 -18.5h-724q-7 0 -10 4.5t-3 9.5v503q0 10 3 18t16 8h713q11 0 13.5 -7.5t2.5 -13.5v-309q0 -4 -2 -10.5t-10 -6.5h-50.5t-75 0.5t-87.5 0.5h-87v-78h300zM455 424v-107h192v107h-192zM334 120v72t-0.5 79.5t-0.5 79.5v72h-197
v-303h198z" />
    <glyph glyph-name="ae" unicode="&#xe6;" horiz-adv-x="798" 
d="M761 118q6 0 9 -18.5t3.5 -40.5t-2.5 -40.5t-9 -18.5h-730q-8 0 -11 5t-3 11v280q0 8 2.5 15t11.5 7h299v104h-265q-6 0 -8.5 19t-2 42t3.5 42t9 19h364h326q11 0 13.5 -8.5t2.5 -14.5v-308q0 -5 -2.5 -11t-10.5 -6h-304q1 -20 0.5 -39.5t-0.5 -38.5h90h91h76.5h46.5z
M331 119v79h-196v-79h196zM457 423q0 -26 0.5 -52.5t-0.5 -54.5h196v107h-196z" />
    <glyph glyph-name="Ccedilla" unicode="&#xc7;" horiz-adv-x="461" 
d="M436 121q6 0 9 -19t3 -41.5t-3 -41.5t-9 -19h-135q-8 -32 -22.5 -65t-24.5 -67q-2 -5 -12.5 -8t-22.5 -3t-21.5 2.5t-9.5 8.5v132h-158q-8 0 -11.5 6t-3.5 14v655q0 8 3.5 15.5t15.5 6.5h402q6 0 9 -18.5t3 -41t-3 -41.5t-9 -19q-17 0 -51 0.5t-76 0.5h-88.5h-87.5
q0 -51 -0.5 -110.5t-0.5 -120.5v-119.5v-106.5h304v0z" />
    <glyph glyph-name="ccedilla" unicode="&#xe7;" horiz-adv-x="465" 
d="M440 122q6 0 8.5 -19t2.5 -41.5t-3 -41.5t-9 -19h-151q-10 -28 -22.5 -57t-20.5 -58q-2 -6 -12.5 -9t-22.5 -3t-21.5 3t-9.5 9q1 34 1 59v56h-151q-8 0 -11.5 6.5t-3.5 14.5v503q0 6 4.5 13t14.5 7h407q6 0 9 -19t3 -41.5t-3 -41t-9 -18.5h-309v-302h90t92.5 -0.5
t78.5 -0.5h48z" />
    <glyph glyph-name="Euro" unicode="&#x20ac;" horiz-adv-x="478" 
d="M450 130q5 1 7.5 -15t2.5 -36t-2.5 -38t-7.5 -21q-13 -7 -41.5 -12t-64.5 -7t-75 -1t-73 6t-59.5 13t-33.5 21q-9 17 -15 64t-10 110h-68q-4 0 -6 12.5t-2 27.5t2 27.5t6 12.5h25.5t40.5 1q-1 14 -1 27.5v27.5h-65q-4 0 -6 12.5t-2 27.5t2 27.5t6 12.5h25t40 1
q1 54 3 100t7 75q4 31 29.5 49.5t62.5 28.5t79.5 13.5t81.5 3t69.5 -2.5t42.5 -2q5 0 7.5 -19.5t2.5 -42t-2.5 -41.5t-7.5 -17q-19 6 -58.5 7t-80 -2t-73 -9t-37.5 -15q-8 -17 -13.5 -50.5t-7.5 -75.5q37 0 66.5 -0.5t40.5 -0.5q4 0 6 -12.5t2 -27.5t-2 -27.5t-6 -12.5h-108
q0 -14 0.5 -27.5t1.5 -27.5q36 0 65.5 -0.5t40.5 -0.5q4 0 6 -12.5t2 -27.5t-2 -27.5t-6 -12.5h-99q2 -20 5.5 -37.5t7.5 -31.5q2 -8 18.5 -12.5t40 -7t52 -2.5t55.5 1t49 2.5t34 3.5z" />
    <glyph glyph-name="dollar" unicode="$" horiz-adv-x="405" 
d="M392 13q0 -5 -1.5 -9t-8.5 -4h-135v-23q0 -6 -15 -8.5t-32.5 -2.5t-32.5 2.5t-15 8.5q0 5 -0.5 10.5t-0.5 12.5h-140q-5 0 -8 17t-3 37t3 37t8 17q21 -1 58.5 -1h81.5v121h-28t-42 -0.5t-39.5 -0.5h-21.5q-7 0 -12 6t-5 13v359q0 4 2.5 11.5t15.5 7.5h130q0 7 0.5 15.5
t0.5 13.5q0 6 15 9t32.5 3t32.5 -3t15 -9v-29h135q6 0 8.5 -16.5t2 -37t-3 -37.5t-7.5 -17h-135q0 -42 -0.5 -87.5t-0.5 -93.5h129q6 0 11.5 -4t5.5 -12v-306zM151 516h-43q-2 -96 0 -181h43v181zM246 228q1 -32 1 -62.5v-58.5h39v121h-40z" />
    <glyph glyph-name="exclam" unicode="!" horiz-adv-x="158" 
d="M134 120q6 0 9 -19t3 -41.5t-3 -41t-9 -18.5h-122q-6 0 -9 18.5t-3 41t3 41.5t9 19q19 0 33.5 0.5t27.5 0.5t27 -0.5t34 -0.5zM12 167q-3 0 -5.5 23t-4 60.5t-2 85.5t-0.5 98.5t0.5 98.5t2 86t4 61t5.5 23q19 0 33.5 0.5t27.5 0.5t27 -0.5t34 -0.5q3 0 5 -23t3.5 -61
t2.5 -86t1 -98.5t-0.5 -98.5t-2 -85.5t-4 -60.5t-5.5 -23h-122z" />
    <glyph glyph-name="exclamdown" unicode="&#xa1;" horiz-adv-x="166" 
d="M137 585.008q6 0 9 18.998q3 18.999 3 41.498q0 22.498 -3 40.9971t-9 18.499h-122q-6 0 -9 -18.499t-3 -40.9971q0 -22.499 3 -41.498q3 -18.998 9 -18.998q19 0 33.5 -0.5t27.5 -0.5t27 0.5t34 0.5zM15 538.01q-3 0 -5.5 -22.998q-2.5 -22.999 -4 -60.4961
q-1.5 -37.498 -2 -85.4951t-0.5 -98.4941t0.5 -98.4941t2 -85.9941q1.5 -37.998 4 -60.9971q2.5 -22.998 5.5 -22.998q19 0 33.5 -0.5t27.5 -0.5t27 0.5t34 0.5q3 0 5 22.998q2 22.999 3.5 60.9971q1.5 37.9971 2.5 85.9941t1 98.4941t-0.5 98.4941t-2 85.4951
q-1.5 37.4971 -4 60.4961q-2.5 22.998 -5.5 22.998h-122z" />
    <glyph glyph-name="question" unicode="?" horiz-adv-x="458" 
d="M126 112q5 0 8 -17.5t3 -38.5t-2.5 -38.5t-8.5 -17.5h-114q-6 0 -8.5 17.5t-2.5 38.5t2.5 38.5t8.5 17.5h114zM426 702q10 0 14.5 -6.5t4.5 -15.5v-402q0 -12 -4.5 -16t-14.5 -4h-22h-46h-59.5h-64.5h-60h-45q0 -18 0.5 -28t0.5 -18v-18v-26l-118 -1v191q0 8 4.5 14
t12.5 6h299q2 96 0 202h-305q-6 0 -8.5 19t-2.5 42t3 42t9 19h402z" />
    <glyph glyph-name="colon" unicode=":" horiz-adv-x="183" 
d="M11 159q-6 0 -8.5 18.5t-2.5 41t2.5 41.5t8.5 19q18 0 31.5 0.5t26 0.5t25.5 -0.5t31 -0.5q5 0 8 -19t3 -41.5t-2.5 -41t-8.5 -18.5q-23 0 -33 0.5t-18.5 0.5t-21.5 -0.5t-41 -0.5zM125 120q5 0 8 -19t3 -41.5t-2.5 -41t-8.5 -18.5h-114q-6 0 -8.5 18.5t-2.5 41t2.5 41.5
t8.5 19q18 0 31.5 0.5t26 0.5t25.5 -0.5t31 -0.5z" />
    <glyph glyph-name="semicolon" unicode=";" horiz-adv-x="179" 
d="M11 73q-6 0 -8.5 18.5t-2.5 41t2.5 41.5t8.5 19q18 0 31.5 0.5t26 0.5t25.5 -0.5t31 -0.5q5 0 8 -19t3 -41.5t-2.5 -41t-8.5 -18.5q-23 0 -33 0.5t-18.5 0.5t-21.5 -0.5t-41 -0.5zM8 22q0 6 18.5 8.5t41 2.5t41.5 -2.5t19 -8.5q0 -20 -6 -60.5t-14.5 -86t-18 -87.5
t-15.5 -65q-2 -6 -12.5 -9t-22.5 -3t-21.5 3t-9.5 9q0 24 0.5 62.5t0.5 81t-0.5 84t-0.5 71.5z" />
    <glyph glyph-name="quotesingle" unicode="'" horiz-adv-x="297" 
d="M4 765l26 43l34 56l35 57.5l29 49.5q3 4 17 -1.5t29.5 -15t27 -19.5t9.5 -14q-8 -14 -29 -39.5l-45.5 -53l-48.5 -52.5t-38 -38q-3 -3 -12 -0.5t-17 7t-14 10.5t-3 10z" />
    <glyph glyph-name="parenleft" unicode="(" horiz-adv-x="285" 
d="M241 110q13 0 21 -17t8.5 -38t-7 -38t-23.5 -17q-44 0 -76 1t-56 6t-40.5 16t-28.5 32q-8 15 -15.5 52.5t-13 88t-8.5 108.5t-1.5 113.5t8.5 104t22 79.5q14 25 38 42t54 27.5t63.5 15.5t66.5 7q14 1 19 -16.5t3.5 -38.5t-9 -39.5t-17.5 -18.5q-18 -2 -37 -6.5
t-36.5 -11.5t-30 -14.5t-16.5 -14.5q-8 -15 -13 -44t-7.5 -66.5t-2 -79t4.5 -81t10.5 -74.5t16.5 -58q3 -8 13.5 -12t24.5 -5.5t31 -2t34 -0.5z" />
    <glyph glyph-name="parenright" unicode=")" horiz-adv-x="292" 
d="M46 110q17 0 33.5 0.5t31 2t24.5 5.5t14 12q10 23 16.5 58t10.5 74.5t4.5 81t-2 79t-7.5 66.5t-13 44q-4 7 -16.5 14.5t-30 14.5t-36.5 11.5t-37 6.5q-11 0 -18 18.5t-8.5 39.5t3.5 38.5t19 16.5q33 -2 66.5 -7t63.5 -15.5t54 -27.5t38 -42q14 -31 21.5 -79.5t9 -104
t-1.5 -113.5t-8.5 -108.5t-13.5 -88t-16 -52.5q-11 -21 -27.5 -32t-40.5 -16t-56.5 -6t-75.5 -1q-16 0 -23.5 17t-7 38t8 38t21.5 17z" />
    <glyph glyph-name="plus" unicode="+" horiz-adv-x="439" 
d="M423 277q6 0 9 -19t3 -41.5t-3 -41t-9 -18.5q-19 1 -58 1h-87v-91t-1 -55q0 -6 -19 -9t-41.5 -3t-41 3t-18.5 9q1 19 1 58v88q-46 0 -85 -0.5t-61 -0.5q-6 0 -9 18.5t-3 41t3 41.5t9 19q15 1 55 1h91q0 46 -0.5 84.5t-0.5 60.5q0 6 18.5 9t41 3t41.5 -3t19 -9
q1 -15 1 -54.5v-90.5h90.5t54.5 -1z" />
    <glyph glyph-name="comma" unicode="," horiz-adv-x="151" 
d="M0 17q0 4 15 6.5t33 2.5t33 -2.5t15 -6.5q0 -16 -4.5 -49t-11.5 -69.5t-14.5 -70.5t-12.5 -52q-1 -5 -9.5 -7.5t-18 -2.5t-17.5 2.5t-8 7.5v241v0z" />
    <glyph glyph-name="hyphen" unicode="-" horiz-adv-x="347" 
d="M319 237q-24 0 -61.5 0.5t-79 0.5t-82 -0.5t-70.5 -0.5q-6 0 -9 18.5t-3 41t3 41.5t9 19q13 0 36 0.5t51.5 0.5h59h59t51.5 -0.5t36 -0.5q6 0 9 -19t3 -41.5t-3 -41t-9 -18.5z" />
    <glyph glyph-name="period" unicode="." horiz-adv-x="200" 
d="M12 0q-6 0 -9 18.5t-3 41t3 41.5t9 19q19 0 33.5 0.5t27.5 0.5t27 -0.5t34 -0.5q6 0 9 -19t3 -41.5t-3 -41t-9 -18.5h-122z" />
    <glyph glyph-name="backslash" unicode="\" horiz-adv-x="361" 
d="M347 43q2 -6 -14 -15t-37 -16.5t-39.5 -11t-20.5 2.5l-24.5 68l-40 111l-48.5 134.5l-49.5 137.5l-43.5 120.5t-30 84.5q-2 6 14.5 15t37 16.5t39 11t20.5 -2.5l32.5 -91.5l42.5 -119l47 -131l46 -128.5l40 -110z" />
    <glyph glyph-name="slash" unicode="/" horiz-adv-x="359" 
d="M236 699q2 6 20.5 2.5t39 -11t37 -16.5t14.5 -15l-30 -84l-43.5 -121l-49.5 -137.5l-48.5 -134.5l-40 -111l-24.5 -68q-2 -6 -20.5 -2.5t-39.5 11t-37 16.5t-14 15l28 76l40 110l46 128.5l47 131l42.5 119z" />
    <glyph glyph-name="less" unicode="&#x3c;" horiz-adv-x="629" 
d="M603 92q5 -3 -1.5 -18.5t-17 -33t-21.5 -30.5t-16 -10l-44.5 26.5l-71 43l-88.5 53l-95.5 57l-91.5 55l-78.5 47l-55 33t-21.5 12.5q-5 2 0 5q1 0 36.5 22l90 55l120 73l126 77l107.5 65.5l66 39.5q5 3 16 -10t21.5 -30t17 -33t1.5 -19l-78 -46l-101 -61l-110.5 -67.5
l-107.5 -65.5l107.5 -65.5l110.5 -67l101 -61z" />
    <glyph glyph-name="greater" unicode="&#x3e;" horiz-adv-x="631" 
d="M19 92l77 46.5l101 61l111 67l108 65.5l-108 65.5l-111 67.5l-101 61l-77 46q-5 3 1.5 19t17 33t21.5 30t16 10l44.5 -26.5l71.5 -43.5l88.5 -54l95 -58l91.5 -56l78 -47.5l54.5 -33.5t21.5 -13q4 -2 1 -5q-1 0 -21.5 -12.5l-55 -33l-78.5 -47l-91.5 -55l-95.5 -57
l-88.5 -53l-71 -43l-44.5 -26.5q-5 -3 -16 10t-21.5 30.5t-17 33t-1.5 18.5z" />
    <glyph glyph-name="equal" unicode="=" horiz-adv-x="454" 
d="M19 264q-6 0 -9 19t-3 41.5t3 41.5t9 19h411q6 0 9 -19t3 -41.5t-3 -41.5t-9 -19q-16 0 -47 0.5t-70 0.5h-82.5h-83.5t-74 -0.5t-54 -0.5zM430 120q6 0 9 -19t3 -41.5t-3 -41t-9 -18.5h-411q-6 0 -9 18.5t-3 41t3 41.5t9 19q13 0 45 0.5t73 0.5h87.5h87.5t73 -0.5
t45 -0.5z" />
    <glyph glyph-name="bracketleft" unicode="[" horiz-adv-x="287" 
d="M252 120q6 0 8.5 -19t1.5 -41.5t-4.5 -41t-9.5 -18.5h-47.5h-69h-69.5h-50q-3 0 -6 8q-6 3 -6 6v671q0 3 9 7q2 2 3 2h4q17 3 43 3t43 -3h150q6 0 8.5 -19t1.5 -41.5t-4.5 -41t-9.5 -18.5q-17 -1 -54 -1h-77v-453h135v0z" />
    <glyph glyph-name="bracketright" unicode="]" horiz-adv-x="280" 
d="M275 14q0 -3 -6 -6q-3 -8 -6 -8h-50h-69.5h-69h-47.5q-6 0 -9.5 18.5t-4.5 41t1 41.5t8 19h136v453h-77t-54 1q-6 0 -9.5 18.5t-4.5 41t1 41.5t8 19h151q17 3 43 3t43 -3h4q1 0 3 -2q9 -4 9 -7v-671z" />
    <glyph glyph-name="braceleft" unicode="{" horiz-adv-x="357" 
d="M294 110q13 0 21 -17t8.5 -38t-7 -38t-23.5 -17q-44 0 -76 1t-56 6t-40.5 16t-28.5 32q-11 22 -22 77.5t-15 139.5q0 3 -9 9.5l-19 14l-18.5 14t-8.5 9.5q0 4 8.5 11.5l18 15.5l18 15.5t8.5 11.5q-2 75 5 131t26 97q13 25 37 42t54 27.5t63.5 15.5t66.5 7
q14 1 19.5 -16.5t4 -38.5t-9 -39.5t-17.5 -18.5q-18 -2 -37 -6.5t-36.5 -11.5t-30.5 -14.5t-17 -14.5q-11 -23 -16.5 -63t-4.5 -102q0 -2 -8.5 -8l-18.5 -12.5t-18.5 -13t-8.5 -8.5q0 -4 9 -12l19 -16.5l19 -16t9 -11.5q2 -49 9.5 -80.5t19.5 -59.5q3 -8 13.5 -12t24.5 -5.5
t31 -2t34 -0.5z" />
    <glyph glyph-name="braceright" unicode="}" horiz-adv-x="370" 
d="M60 110q17 0 33.5 0.5t31 2t24.5 5.5t14 12q12 28 19 59.5t10 80.5q0 4 9 11.5l19 16t18.5 16.5t8.5 12q0 2 -8 8.5t-18 13l-18.5 12.5t-8.5 8q1 121 -22 165q-4 7 -16.5 14.5t-30 14.5t-36.5 11.5t-37 6.5q-11 0 -18 18.5t-8.5 39.5t3.5 38.5t19 16.5q33 -2 66.5 -7
t63.5 -15.5t54 -27.5t38 -42q19 -41 26 -97t5 -131q0 -4 8.5 -11.5l18 -15.5l18 -15.5t8.5 -11.5q0 -3 -8.5 -9.5l-19 -14l-19 -14t-8.5 -9.5q-5 -84 -15.5 -139.5t-22.5 -77.5q-11 -21 -27.5 -32t-40.5 -16t-56.5 -6t-75.5 -1q-16 0 -23.5 17t-7 38t8 38t21.5 17z" />
    <glyph glyph-name="minus" unicode="&#x2212;" horiz-adv-x="444" 
d="M426 156q-16 0 -47 0.5t-70 0.5h-82.5h-83.5t-74 -0.5t-54 -0.5q-6 0 -9 18.5t-3 41t3 41.5t9 19q13 0 45 0.5t73 0.5h87.5h87.5t73 -0.5t45 -0.5q6 0 9 -19t3 -41.5t-3 -41t-9 -18.5z" />
    <glyph glyph-name="multiply" unicode="&#xd7;" horiz-adv-x="429" 
d="M308 209l70.5 -71t42.5 -43q4 -5 -8 -22t-29.5 -34.5t-34.5 -30t-22 -7.5l-44.5 45.5l-68.5 68.5l-114 -114q-3 -3 -12 2t-20.5 14.5t-24 21.5t-22 23.5t-14 20.5t-1.5 12l114 114l-66 65.5l-48 47.5q-5 5 7.5 22t30 34.5t34.5 29.5t22 8l43.5 -43l70.5 -71l66 66.5
l47 47.5q5 5 22 -7.5t34.5 -30t29.5 -34.5t8 -21q-11 -12 -42.5 -43.5z" />
    <glyph glyph-name="divide" unicode="&#xf7;" horiz-adv-x="439" 
d="M423 326q6 0 9 -19t3 -41.5t-3 -41t-9 -18.5h-411q-6 0 -9 18.5t-3 41t3 41.5t9 19h411zM156 402q-6 0 -8.5 18.5t-2.5 41t2.5 41.5t8.5 19h123q6 0 9 -19t3 -41.5t-3 -41t-9 -18.5h-123zM279 120q6 0 9 -19t3 -41.5t-3 -41t-9 -18.5h-123q-6 0 -8.5 18.5t-2.5 41
t2.5 41.5t8.5 19q19 0 33.5 0.5t28 0.5t27.5 -0.5t34 -0.5z" />
    <glyph glyph-name="plusminus" unicode="&#xb1;" horiz-adv-x="460" 
d="M25 321q-6 0 -9 18.5t-3 41t3 41.5t9 19q15 0 55 0.5t91 0.5v84.5t-1 60.5q0 6 18.5 9t41 3t41.5 -3t19 -9q1 -15 1 -54.5v-90.5q51 0 90.5 -0.5t54.5 -0.5q6 0 9 -19t3 -41.5t-3 -41t-9 -18.5q-19 0 -58 0.5t-87 0.5v-91t-1 -55q0 -6 -19 -9t-41.5 -3t-41 3t-18.5 9
q1 19 1 58v88q-46 0 -85 -0.5t-61 -0.5zM428 120q6 0 9 -19t3 -41.5t-3 -41t-9 -18.5h-411q-6 0 -9 18.5t-3 41t3 41.5t9 19q13 0 45 0.5t73 0.5h87.5h87.5t73 -0.5t45 -0.5z" />
    <glyph glyph-name="grave" unicode="`" horiz-adv-x="650" 
d="M533 748q-16 0 -47 0.5t-70 0.5h-82.5h-83.5t-74 -0.5t-54 -0.5q-6 0 -9 18.5t-3 41t3 41.5t9 19q13 0 44.5 -2.5t72 -7t86 -10.5t86.5 -12t74 -12t48 -10q6 -2 9 -12.5t3 -22.5t-3 -21.5t-9 -9.5z" />
    <glyph glyph-name="acute" unicode="&#xb4;" horiz-adv-x="641" 
d="M116 750q-6 0 -8.5 9.5t-2.5 21.5t3 22.5t8 12.5q15 4 48 10t74.5 12l87 12t86 10.5t72 7t44.5 2.5q6 0 9 -19t3 -41.5t-3 -41t-9 -18.5q-20 0 -54 0.5t-74 0.5h-83.5h-82.5t-70.5 -0.5t-47.5 -0.5z" />
    <glyph glyph-name="circumflex" unicode="&#x2c6;" horiz-adv-x="626" 
d="M314 789q-8 -1 -34 -5t-57.5 -10.5t-62 -14t-45.5 -14.5q-5 -3 -8 15t-3 40.5t2.5 42.5t8.5 22q12 4 39.5 11.5t59 15t60 12.5t40.5 5t40 -5.5t60 -13l61.5 -14.5t44.5 -11q5 -2 8 -21.5t3 -42t-2.5 -40.5t-8.5 -16q-15 5 -46 12.5l-64.5 15t-61 12.5t-34.5 4z" />
    <glyph glyph-name="dieresis" unicode="&#xa8;" horiz-adv-x="609" 
d="M236 868q6 0 9 -19t3 -41.5t-3 -41t-9 -18.5h-122q-6 0 -9 18.5t-3 41t3 41.5t9 19h122zM501 868q6 0 9 -19t3 -41.5t-3 -41t-9 -18.5h-123q-6 0 -8.5 18.5t-2.5 41t2.5 41.5t8.5 19h123z" />
    <glyph glyph-name="tilde" unicode="&#x2dc;" horiz-adv-x="641" 
d="M529 750q-32 -6 -66 -2t-69.5 11l-71 14.5t-70.5 9.5t-69 -5t-66 -28q-5 -3 -7 13.5t-2 39t2 43t7 24.5q22 19 52 23t65.5 0t73.5 -12.5t76.5 -15t75.5 -7t69 11.5q5 2 8 -16t3 -41t-2.5 -42.5t-8.5 -20.5z" />
    <glyph glyph-name="questiondown" unicode="&#xbf;" horiz-adv-x="458" 
d="M319.008 591.007q-5 0 -8 17.499q-2.99902 17.499 -2.99902 38.498q0 20.998 2.49902 38.4971q2.5 17.499 8.5 17.499h113.993q5.99902 0 8.49902 -17.499t2.5 -38.4971q0 -20.999 -2.5 -38.498t-8.49902 -17.499h-113.993zM19.0264 1.04297q-10 0 -14.499 6.5
q-4.5 6.49902 -4.5 15.498v401.976q0 12 4.5 15.999q4.49902 4 14.499 4h21.998h45.9971h59.4971h64.4961h59.9961h44.9971q0 17.999 -0.5 27.998q-0.5 10 -0.5 17.999v17.999v25.998l117.993 1v-190.988q0 -7.99902 -4.5 -13.999q-4.5 -5.99902 -12.499 -5.99902h-298.982
q-1.99902 -95.9941 0 -201.988h304.981q6 0 8.5 -18.999q2.5 -18.998 2.5 -41.9971q0 -22.998 -3 -41.9971t-8.99902 -18.999h-401.976z" />
    <glyph glyph-name="D" unicode="D" horiz-adv-x="507" 
d="M474 16q0 -6 -3.5 -11t-12.5 -5h-411q-6 0 -9 19t-3 41.5t3 41.5t9 19h10v457h-10q-6 0 -9 18.5t-3 41t3 41.5t9 19h45h73.5h87.5h87.5h73.5h45q15 0 15 -21v-661zM356 121v457h-182v-457h182z" />
    <glyph glyph-name="agrave" unicode="&#xe0;" horiz-adv-x="469" 
d="M448 511v-21.5v-54v-76v-87v-87.5v-77.5v-57v-25.5q0 -9 -2.5 -17t-10.5 -8h-404q-8 0 -11 5t-3 11v280q0 8 2.5 15t11.5 7h299v104h-265q-6 0 -8.5 19t-2 42t3.5 42t9 19h42h65.5h77.5h77.5h65.5h42q10 0 10.5 -11.5t0.5 -21.5zM330 119v79h-196v-79h196zM447.191 631
q-14.9551 0 -43.9307 0.5t-65.4287 0.5h-77.1123h-78.0469t-69.167 -0.5t-50.4736 -0.5q-5.6084 0 -8.41211 18.5t-2.80371 41t2.80371 41.5t8.41211 19q12.1514 0 41.5938 -2.5q29.4434 -2.5 67.2979 -7q37.8555 -4.5 80.3838 -10.5t80.8506 -12t69.168 -12
q30.8447 -6 44.8652 -10q5.60742 -2 8.41211 -12.5q2.80371 -10.5 2.80371 -22.5t-2.80371 -21.5q-2.80469 -9.5 -8.41211 -9.5z" />
    <glyph glyph-name="aacute" unicode="&#xe1;" horiz-adv-x="469" 
d="M448 511v-21.5v-54v-76v-87v-87.5v-77.5v-57v-25.5q0 -9 -2.5 -17t-10.5 -8h-404q-8 0 -11 5t-3 11v280q0 8 2.5 15t11.5 7h299v104h-265q-6 0 -8.5 19t-2 42t3.5 42t9 19h42h65.5h77.5h77.5h65.5h42q10 0 10.5 -11.5t0.5 -21.5zM330 119v79h-196v-79h196zM76.502 631
q-5.40527 0 -7.65723 9.5q-2.25293 9.5 -2.25293 21.5t2.70312 22.5t7.20703 12.5q13.5137 4 43.2422 10t67.1152 12l78.377 12t77.4756 10.5t64.8633 7t40.0889 2.5q5.40527 0 8.10742 -19q2.70312 -19 2.70312 -41.5t-2.70312 -41q-2.70215 -18.5 -8.10742 -18.5
q-18.0176 0 -48.6475 0.5t-66.665 0.5h-75.2236h-74.3223t-63.5117 -0.5t-42.792 -0.5z" />
    <glyph glyph-name="acircumflex" unicode="&#xe2;" horiz-adv-x="469" 
d="M448 511v-21.5v-54v-76v-87v-87.5v-77.5v-57v-25.5q0 -9 -2.5 -17t-10.5 -8h-404q-8 0 -11 5t-3 11v280q0 8 2.5 15t11.5 7h299v104h-265q-6 0 -8.5 19t-2 42t3.5 42t9 19h42h65.5h77.5h77.5h65.5h42q10 0 10.5 -11.5t0.5 -21.5zM330 119v79h-196v-79h196zM249.798 682
q-7.35742 -1 -31.2705 -5q-23.9141 -4 -52.8857 -10.5t-57.0234 -14t-41.8486 -14.5q-4.59863 -3 -7.35742 15q-2.75977 18 -2.75977 40.5t2.2998 42.5t7.81738 22q11.0371 4 36.3301 11.5t54.2646 15t55.1846 12.5q26.2119 5 37.249 5t36.79 -5.5q25.752 -5.5 55.1836 -13
l56.5645 -14.5q27.1318 -7 40.9277 -11q4.59961 -2 7.3584 -21.5t2.75879 -42t-2.29883 -40.5q-2.2998 -18 -7.81836 -16q-13.7959 5 -42.3076 12.5l-59.3232 15q-30.8105 7.5 -56.1035 12.5t-31.7314 4z" />
    <glyph glyph-name="atilde" unicode="&#xe3;" horiz-adv-x="469" 
d="M448 511v-21.5v-54v-76v-87v-87.5v-77.5v-57v-25.5q0 -9 -2.5 -17t-10.5 -8h-404q-8 0 -11 5t-3 11v280q0 8 2.5 15t11.5 7h299v104h-265q-6 0 -8.5 19t-2 42t3.5 42t9 19h42h65.5h77.5h77.5h65.5h42q10 0 10.5 -11.5t0.5 -21.5zM330 119v79h-196v-79h196z
M439.021 631.688q-29.0977 -6.10938 -60.0137 -2.03711q-30.916 4.07324 -63.1963 11.2012l-64.5605 14.7646t-64.1055 9.67285q-31.8262 2.03711 -62.7422 -5.09082t-60.0137 -28.5107q-4.54688 -3.05469 -6.36523 13.7461t-1.81836 39.7119q0 22.9102 1.81836 43.7842
t6.36523 24.9473q20.0039 19.3467 47.2832 23.4199t59.5596 0t66.833 -12.7285q34.5537 -8.6543 69.5625 -15.2734q35.0078 -6.61816 68.6523 -7.12793q33.6436 -0.508789 62.7412 11.71q4.54688 2.03711 7.27441 -16.292q2.72852 -18.3281 2.72852 -41.748
t-2.27344 -43.2754q-2.27344 -19.8564 -7.72949 -20.874z" />
    <glyph glyph-name="adieresis" unicode="&#xe4;" horiz-adv-x="469" 
d="M448 511v-21.5v-54v-76v-87v-87.5v-77.5v-57v-25.5q0 -9 -2.5 -17t-10.5 -8h-404q-8 0 -11 5t-3 11v280q0 8 2.5 15t11.5 7h299v104h-265q-6 0 -8.5 19t-2 42t3.5 42t9 19h42h65.5h77.5h77.5h65.5h42q10 0 10.5 -11.5t0.5 -21.5zM330 119v79h-196v-79h196zM186.789 752
q5.61328 0 8.41992 -19t2.80664 -41.5t-2.80664 -41t-8.41992 -18.5h-114.137q-5.61328 0 -8.41992 18.5t-2.80664 41t2.80664 41.5t8.41992 19h114.137zM434.709 752q5.61328 0 8.41992 -19t2.80664 -41.5t-2.80664 -41t-8.41992 -18.5h-115.072q-5.61328 0 -7.95215 18.5
t-2.33887 41t2.33887 41.5t7.95215 19h115.072z" />
    <glyph glyph-name="egrave" unicode="&#xe8;" horiz-adv-x="476" 
d="M136 196v-78h89.5h91h76.5h47q6 0 9 -18.5t3.5 -40.5t-2.5 -40.5t-9 -18.5h-404q-12 0 -15 7.5t-3 15.5v496q0 8 4 16.5t16 8.5h398q11 0 13 -8.5t2 -14.5v-308q0 -5 -2 -11t-10 -6h-304zM136 423v-107h196v107h-196zM442 631q-16 0 -47 0.5t-70 0.5h-82.5h-83.5
t-74 -0.5t-54 -0.5q-6 0 -9 18.5t-3 41t3 41.5t9 19q13 0 44.5 -2.5t72 -7t86 -10.5t86.5 -12t74 -12t48 -10q6 -2 9 -12.5t3 -22.5t-3 -21.5t-9 -9.5z" />
    <glyph glyph-name="eacute" unicode="&#xe9;" horiz-adv-x="476" 
d="M136 196v-78h89.5h91h76.5h47q6 0 9 -18.5t3.5 -40.5t-2.5 -40.5t-9 -18.5h-404q-12 0 -15 7.5t-3 15.5v496q0 8 4 16.5t16 8.5h398q11 0 13 -8.5t2 -14.5v-308q0 -5 -2 -11t-10 -6h-304zM136 423v-107h196v107h-196zM31 631q-6 0 -8.5 9.5t-2.5 21.5t3 22.5t8 12.5
q15 4 48 10t74.5 12l87 12t86 10.5t72 7t44.5 2.5q6 0 9 -19t3 -41.5t-3 -41t-9 -18.5q-20 0 -54 0.5t-74 0.5h-83.5h-82.5t-70.5 -0.5t-47.5 -0.5z" />
    <glyph glyph-name="ecircumflex" unicode="&#xea;" horiz-adv-x="476" 
d="M136 196v-78h89.5h91h76.5h47q6 0 9 -18.5t3.5 -40.5t-2.5 -40.5t-9 -18.5h-404q-12 0 -15 7.5t-3 15.5v496q0 8 4 16.5t16 8.5h398q11 0 13 -8.5t2 -14.5v-308q0 -5 -2 -11t-10 -6h-304zM136 423v-107h196v107h-196zM235 677q-8 -1 -34 -5t-57.5 -10.5t-62 -14
t-45.5 -14.5q-5 -3 -8 15t-3 40.5t2.5 42.5t8.5 22q12 4 39.5 11.5t59 15t60 12.5t40.5 5t40 -5.5t60 -13l61.5 -14.5t44.5 -11q5 -2 8 -21.5t3 -42t-2.5 -40.5t-8.5 -16q-15 5 -46 12.5l-64.5 15t-61 12.5t-34.5 4z" />
    <glyph glyph-name="edieresis" unicode="&#xeb;" horiz-adv-x="476" 
d="M136 196v-78h89.5h91h76.5h47q6 0 9 -18.5t3.5 -40.5t-2.5 -40.5t-9 -18.5h-404q-12 0 -15 7.5t-3 15.5v496q0 8 4 16.5t16 8.5h398q11 0 13 -8.5t2 -14.5v-308q0 -5 -2 -11t-10 -6h-304zM136 423v-107h196v107h-196zM170 751q6 0 9 -19t3 -41.5t-3 -41t-9 -18.5h-122
q-6 0 -9 18.5t-3 41t3 41.5t9 19h122zM435 751q6 0 9 -19t3 -41.5t-3 -41t-9 -18.5h-123q-6 0 -8.5 18.5t-2.5 41t2.5 41.5t8.5 19h123z" />
    <glyph glyph-name="igrave" unicode="&#xec;" horiz-adv-x="155" 
d="M137 536q0 -56 -0.5 -129t-0.5 -147t0.5 -140.5t0.5 -107.5q0 -6 -18.5 -9t-40.5 -3t-40.5 3t-18.5 9v524q0 6 18.5 9t40.5 3t40.5 -3t18.5 -9zM193.901 630.837q-8.97266 0 -26.3564 0.495117q-17.3848 0.496094 -39.2559 0.496094h-46.2656h-46.8262t-41.498 -0.496094
q-19.0664 -0.495117 -30.2832 -0.495117q-3.36426 0 -5.04688 18.3477q-1.68164 18.3477 -1.68164 40.6621t1.68164 41.1582q1.68262 18.8428 5.04688 18.8428q7.29102 0 24.9561 -2.47949t40.377 -6.94238t48.2275 -10.4131t48.5088 -11.9014
q22.9922 -5.9502 41.498 -11.9004q18.5068 -5.95117 26.918 -9.91797q3.36523 -1.9834 5.04785 -12.3975q1.68164 -10.4131 1.68164 -22.3145t-1.68164 -21.3223q-1.68262 -9.42188 -5.04785 -9.42188z" />
    <glyph glyph-name="iacute" unicode="&#xed;" horiz-adv-x="155" 
d="M137 536q0 -56 -0.5 -129t-0.5 -147t0.5 -140.5t0.5 -107.5q0 -6 -18.5 -9t-40.5 -3t-40.5 3t-18.5 9v524q0 6 18.5 9t40.5 3t40.5 -3t18.5 -9zM-38.1621 630.82q-3.40527 0 -4.82422 9.42188t-1.41895 21.3223q0 11.9014 1.70215 22.3145
q1.70312 10.4141 4.54102 12.3975q8.51367 3.9668 27.2432 9.91797q18.7295 5.9502 42.2832 11.9004l49.3789 11.9014q25.8242 5.95117 48.8105 10.4141t40.8643 6.94141q17.8789 2.47949 25.2568 2.47949q3.40527 0 5.1084 -18.8428q1.70215 -18.8438 1.70215 -41.1582
t-1.70215 -40.6621q-1.70312 -18.3477 -5.1084 -18.3477q-11.3516 0 -30.6484 0.496094q-19.2979 0.495117 -42 0.495117h-47.3916h-46.8242t-40.0137 -0.495117q-17.8779 -0.496094 -26.959 -0.496094z" />
    <glyph glyph-name="icircumflex" unicode="&#xee;" horiz-adv-x="155" 
d="M137 536q0 -56 -0.5 -129t-0.5 -147t0.5 -140.5t0.5 -107.5q0 -6 -18.5 -9t-40.5 -3t-40.5 3t-18.5 9v524q0 6 18.5 9t40.5 3t40.5 -3t18.5 -9zM76.3672 667.106q-4.69727 -0.941406 -19.9629 -4.70898t-33.7617 -9.88965q-18.4951 -6.12109 -36.4033 -13.1855
q-17.9092 -7.06348 -26.7158 -13.6562q-2.93555 -2.8252 -4.69727 14.127q-1.76172 16.9531 -1.76172 38.1445t1.46777 40.0283t4.99121 20.7197q7.0459 3.76758 23.1924 10.832q16.1475 7.06348 34.6426 14.127t35.2295 11.7734q16.7344 4.70898 23.7793 4.70898
q7.04688 0 23.4863 -5.18066q16.4414 -5.17969 35.2305 -12.2432l36.1094 -13.6572q17.3213 -6.59277 26.1289 -10.3604q2.93555 -1.88281 4.69727 -20.249t1.76172 -39.5566q0 -21.1914 -1.46777 -38.1445t-4.99121 -15.0693q-8.80762 4.70898 -27.0098 11.7725
l-37.8711 14.1279t-35.8164 11.7725q-16.1475 4.70996 -20.2578 3.76758z" />
    <glyph glyph-name="idieresis" unicode="&#xef;" horiz-adv-x="155" 
d="M137 536q0 -56 -0.5 -129t-0.5 -147t0.5 -140.5t0.5 -107.5q0 -6 -18.5 -9t-40.5 -3t-40.5 3t-18.5 9v524q0 6 18.5 9t40.5 3t40.5 -3t18.5 -9zM32.0098 739.91q3.73828 0 5.60645 -17.1162q1.86914 -17.1152 1.86914 -37.3838t-1.86914 -36.9336
q-1.86816 -16.665 -5.60645 -16.665h-75.9961q-3.73828 0 -5.60645 16.665q-1.86914 16.665 -1.86914 36.9336t1.86914 37.3838q1.86816 17.1162 5.60645 17.1162h75.9961zM197.085 739.91q3.73828 0 5.60645 -17.1162q1.86914 -17.1152 1.86914 -37.3838t-1.86914 -36.9336
q-1.86816 -16.665 -5.60645 -16.665h-76.6191q-3.7373 0 -5.29492 16.665t-1.55762 36.9336t1.55762 37.3838q1.55762 17.1162 5.29492 17.1162h76.6191z" />
    <glyph glyph-name="ntilde" unicode="&#xf1;" horiz-adv-x="477" 
d="M455 531q0 -57 0.5 -129t0.5 -144v-137t-1 -109q0 -6 -17 -8.5t-38 -2.5t-39.5 2t-20.5 7q-9 18 -30 50.5l-49.5 74l-61 88l-63.5 91.5v-87.5v-83t0.5 -73t0.5 -58.5q0 -6 -18.5 -9t-40.5 -3t-40.5 3t-18.5 9v519q0 8 17 12t38.5 4t40.5 -4.5t22 -11.5l73 -113
l31.5 -49.5l33 -50.5l32.5 -48.5l30 -42.5q0 42 0.5 85.5t0.5 83.5v75v60q0 6 18.5 10t40 4.5t40 -3t18.5 -11.5zM444 654q-32 -6 -66 -2t-69.5 11l-71 14.5t-70.5 9.5t-69 -5t-66 -28q-5 -3 -7 13.5t-2 39t2 43t7 24.5q22 19 52 23t65.5 0t73.5 -12.5t76.5 -15t75.5 -7
t69 11.5q5 2 8 -16t3 -41t-2.5 -42.5t-8.5 -20.5z" />
    <glyph glyph-name="ograve" unicode="&#xf2;" 
d="M455 14q0 -5 -3 -9.5t-8 -4.5h-412q-7 0 -10 4.5t-3 9.5v503q0 10 3 18t16 8h399q9 0 13.5 -8t4.5 -17v-98v-111v-112.5v-103.5v-79zM337 120v303h-201v-303h201zM443 632q-16 0 -47 0.5t-70 0.5h-82.5h-83.5t-74 -0.5t-54 -0.5q-6 0 -9 18.5t-3 41t3 41.5t9 19
q13 0 44.5 -2.5t72 -7t86 -10.5t86.5 -12t74 -12t48 -10q6 -2 9 -12.5t3 -22.5t-3 -21.5t-9 -9.5z" />
    <glyph glyph-name="oacute" unicode="&#xf3;" 
d="M455 14q0 -5 -3 -9.5t-8 -4.5h-412q-7 0 -10 4.5t-3 9.5v503q0 10 3 18t16 8h399q9 0 13.5 -8t4.5 -17v-98v-111v-112.5v-103.5v-79zM337 120v303h-201v-303h201zM32 631q-6 0 -8.5 9.5t-2.5 21.5t3 22.5t8 12.5q15 4 48 10t74.5 12l87 12t86 10.5t72 7t44.5 2.5
q6 0 9 -19t3 -41.5t-3 -41t-9 -18.5q-20 0 -54 0.5t-74 0.5h-83.5h-82.5t-70.5 -0.5t-47.5 -0.5z" />
    <glyph glyph-name="ocircumflex" unicode="&#xf4;" 
d="M455 14q0 -5 -3 -9.5t-8 -4.5h-412q-7 0 -10 4.5t-3 9.5v503q0 10 3 18t16 8h399q9 0 13.5 -8t4.5 -17v-98v-111v-112.5v-103.5v-79zM337 120v303h-201v-303h201zM234 682q-8 -1 -34 -5t-57.5 -10.5t-62 -14t-45.5 -14.5q-5 -3 -8 15t-3 40.5t2.5 42.5t8.5 22
q12 4 39.5 11.5t59 15t60 12.5t40.5 5t40 -5.5t60 -13l61.5 -14.5t44.5 -11q5 -2 8 -21.5t3 -42t-2.5 -40.5t-8.5 -16q-15 5 -46 12.5l-64.5 15t-61 12.5t-34.5 4z" />
    <glyph glyph-name="otilde" unicode="&#xf5;" 
d="M455 14q0 -5 -3 -9.5t-8 -4.5h-412q-7 0 -10 4.5t-3 9.5v503q0 10 3 18t16 8h399q9 0 13.5 -8t4.5 -17v-98v-111v-112.5v-103.5v-79zM337 120v303h-201v-303h201zM442 654q-32 -6 -66 -2t-69.5 11l-71 14.5t-70.5 9.5t-69 -5t-66 -28q-5 -3 -7 13.5t-2 39t2 43t7 24.5
q22 19 52 23t65.5 0t73.5 -12.5t76.5 -15t75.5 -7t69 11.5q5 2 8 -16t3 -41t-2.5 -42.5t-8.5 -20.5z" />
    <glyph glyph-name="odieresis" unicode="&#xf6;" 
d="M455 14q0 -5 -3 -9.5t-8 -4.5h-412q-7 0 -10 4.5t-3 9.5v503q0 10 3 18t16 8h399q9 0 13.5 -8t4.5 -17v-98v-111v-112.5v-103.5v-79zM337 120v303h-201v-303h201zM167 752q6 0 9 -19t3 -41.5t-3 -41t-9 -18.5h-122q-6 0 -9 18.5t-3 41t3 41.5t9 19h122zM432 752
q6 0 9 -19t3 -41.5t-3 -41t-9 -18.5h-123q-6 0 -8.5 18.5t-2.5 41t2.5 41.5t8.5 19h123z" />
    <glyph glyph-name="ugrave" unicode="&#xf9;" 
d="M455 532v-78.5v-106.5v-116v-106.5v-78.5v-32q0 -7 -3.5 -10.5t-8.5 -3.5h-412q-12 0 -12 14v518q0 6 18.5 9t40 3t40 -3t18.5 -9v-92.5v-106.5v-110v-103h201v106.5v115.5t0.5 107t0.5 83q0 6 18.5 9t40 3t40 -3t18.5 -9zM443 631q-16 0 -47 0.5t-70 0.5h-82.5h-83.5
t-74 -0.5t-54 -0.5q-6 0 -9 18.5t-3 41t3 41.5t9 19q13 0 44.5 -2.5t72 -7t86 -10.5t86.5 -12t74 -12t48 -10q6 -2 9 -12.5t3 -22.5t-3 -21.5t-9 -9.5z" />
    <glyph glyph-name="uacute" unicode="&#xfa;" 
d="M455 532v-78.5v-106.5v-116v-106.5v-78.5v-32q0 -7 -3.5 -10.5t-8.5 -3.5h-412q-12 0 -12 14v518q0 6 18.5 9t40 3t40 -3t18.5 -9v-92.5v-106.5v-110v-103h201v106.5v115.5t0.5 107t0.5 83q0 6 18.5 9t40 3t40 -3t18.5 -9zM32 631q-6 0 -8.5 9.5t-2.5 21.5t3 22.5t8 12.5
q15 4 48 10t74.5 12l87 12t86 10.5t72 7t44.5 2.5q6 0 9 -19t3 -41.5t-3 -41t-9 -18.5q-20 0 -54 0.5t-74 0.5h-83.5h-82.5t-70.5 -0.5t-47.5 -0.5z" />
    <glyph glyph-name="ucircumflex" unicode="&#xfb;" 
d="M455 532v-78.5v-106.5v-116v-106.5v-78.5v-32q0 -7 -3.5 -10.5t-8.5 -3.5h-412q-12 0 -12 14v518q0 6 18.5 9t40 3t40 -3t18.5 -9v-92.5v-106.5v-110v-103h201v106.5v115.5t0.5 107t0.5 83q0 6 18.5 9t40 3t40 -3t18.5 -9zM234 682q-8 -1 -34 -5t-57.5 -10.5t-62 -14
t-45.5 -14.5q-5 -3 -8 15t-3 40.5t2.5 42.5t8.5 22q12 4 39.5 11.5t59 15t60 12.5t40.5 5t40 -5.5t60 -13l61.5 -14.5t44.5 -11q5 -2 8 -21.5t3 -42t-2.5 -40.5t-8.5 -16q-15 5 -46 12.5l-64.5 15t-61 12.5t-34.5 4z" />
    <glyph glyph-name="udieresis" unicode="&#xfc;" 
d="M455 532v-78.5v-106.5v-116v-106.5v-78.5v-32q0 -7 -3.5 -10.5t-8.5 -3.5h-412q-12 0 -12 14v518q0 6 18.5 9t40 3t40 -3t18.5 -9v-92.5v-106.5v-110v-103h201v106.5v115.5t0.5 107t0.5 83q0 6 18.5 9t40 3t40 -3t18.5 -9zM167 751q6 0 9 -19t3 -41.5t-3 -41t-9 -18.5
h-122q-6 0 -9 18.5t-3 41t3 41.5t9 19h122zM432 751q6 0 9 -19t3 -41.5t-3 -41t-9 -18.5h-123q-6 0 -8.5 18.5t-2.5 41t2.5 41.5t8.5 19h123z" />
    <glyph glyph-name="yacute" unicode="&#xfd;" horiz-adv-x="472" 
d="M356 543q3 5 20 -2t36.5 -19t34 -24.5t11.5 -18.5q-17 -34 -38 -71.5l-43.5 -76l-44.5 -75.5t-40 -71q0 -20 0.5 -34.5t0.5 -32.5t-0.5 -43.5t-1.5 -66.5q0 -4 -17.5 -6t-38.5 -2t-38.5 2t-17.5 6q0 35 -0.5 57.5t-0.5 41v37.5v46l-40 67.5l-42 71.5l-42 71.5l-40 68.5
q-3 5 10.5 19t31.5 27.5t35 22t21 3.5q34 -53 64.5 -105.5l62.5 -106.5q29 55 59 106.5t58 107.5zM33 632q-6 0 -8.5 9.5t-2.5 21.5t3 22.5t8 12.5q15 4 48 10t74.5 12l87 12t86 10.5t72 7t44.5 2.5q6 0 9 -19t3 -41.5t-3 -41t-9 -18.5q-20 0 -54 0.5t-74 0.5h-83.5h-82.5
t-70.5 -0.5t-47.5 -0.5z" />
    <glyph glyph-name="ydieresis" unicode="&#xff;" horiz-adv-x="472" 
d="M356 543q3 5 20 -2t36.5 -19t34 -24.5t11.5 -18.5q-17 -34 -38 -71.5l-43.5 -76l-44.5 -75.5t-40 -71q0 -20 0.5 -34.5t0.5 -32.5t-0.5 -43.5t-1.5 -66.5q0 -4 -17.5 -6t-38.5 -2t-38.5 2t-17.5 6q0 35 -0.5 57.5t-0.5 41v37.5v46l-40 67.5l-42 71.5l-42 71.5l-40 68.5
q-3 5 10.5 19t31.5 27.5t35 22t21 3.5q34 -53 64.5 -105.5l62.5 -106.5q29 55 59 106.5t58 107.5zM168 752q6 0 9 -19t3 -41.5t-3 -41t-9 -18.5h-122q-6 0 -9 18.5t-3 41t3 41.5t9 19h122zM433 752q6 0 9 -19t3 -41.5t-3 -41t-9 -18.5h-123q-6 0 -8.5 18.5t-2.5 41t2.5 41.5
t8.5 19h123z" />
    <glyph glyph-name="Agrave" unicode="&#xc0;" horiz-adv-x="497" 
d="M464 678v-27.5v-67.5v-96v-112v-116v-107v-86.5v-53.5q0 -6 -18.5 -9t-40 -3t-40 3t-18.5 9v36v56.5t-0.5 71.5t-0.5 81h-44t-53.5 0.5t-53.5 0.5h-45v-146.5t1 -99.5q0 -6 -18.5 -9t-40.5 -3t-40.5 3t-18.5 9v666q0 11 6 16t13 5h397q11 0 13 -6.5t2 -14.5zM346 378
q0 54 0.5 105.5t0.5 95.5h-197v-201h196zM455 797q-16 0 -47 0.5t-70 0.5h-82.5h-83.5t-74 -0.5t-54 -0.5q-6 0 -9 18.5t-3 41t3 41.5t9 19q13 0 44.5 -2.5t72 -7t86 -10.5t86.5 -12t74 -12t48 -10q6 -2 9 -12.5t3 -22.5t-3 -21.5t-9 -9.5z" />
    <glyph glyph-name="Aacute" unicode="&#xc1;" horiz-adv-x="497" 
d="M464 678v-27.5v-67.5v-96v-112v-116v-107v-86.5v-53.5q0 -6 -18.5 -9t-40 -3t-40 3t-18.5 9v36v56.5t-0.5 71.5t-0.5 81h-44t-53.5 0.5t-53.5 0.5h-45v-146.5t1 -99.5q0 -6 -18.5 -9t-40.5 -3t-40.5 3t-18.5 9v666q0 11 6 16t13 5h397q11 0 13 -6.5t2 -14.5zM346 378
q0 54 0.5 105.5t0.5 95.5h-197v-201h196zM44 801q-6 0 -8.5 9.5t-2.5 21.5t3 22.5t8 12.5q15 4 48 10t74.5 12l87 12t86 10.5t72 7t44.5 2.5q6 0 9 -19t3 -41.5t-3 -41t-9 -18.5q-20 0 -54 0.5t-74 0.5h-83.5h-82.5t-70.5 -0.5t-47.5 -0.5z" />
    <glyph glyph-name="Acircumflex" unicode="&#xc2;" horiz-adv-x="497" 
d="M464 678v-27.5v-67.5v-96v-112v-116v-107v-86.5v-53.5q0 -6 -18.5 -9t-40 -3t-40 3t-18.5 9v36v56.5t-0.5 71.5t-0.5 81h-44t-53.5 0.5t-53.5 0.5h-45v-146.5t1 -99.5q0 -6 -18.5 -9t-40.5 -3t-40.5 3t-18.5 9v666q0 11 6 16t13 5h397q11 0 13 -6.5t2 -14.5zM346 378
q0 54 0.5 105.5t0.5 95.5h-197v-201h196zM246 842q-8 -1 -34 -5t-57.5 -10.5t-62 -14t-45.5 -14.5q-5 -3 -8 15t-3 40.5t2.5 42.5t8.5 22q12 4 39.5 11.5t59 15t60 12.5t40.5 5t40 -5.5t60 -13l61.5 -14.5t44.5 -11q5 -2 8 -21.5t3 -42t-2.5 -40.5t-8.5 -16q-15 5 -46 12.5
l-64.5 15t-61 12.5t-34.5 4z" />
    <glyph glyph-name="Atilde" unicode="&#xc3;" horiz-adv-x="497" 
d="M464 678v-27.5v-67.5v-96v-112v-116v-107v-86.5v-53.5q0 -6 -18.5 -9t-40 -3t-40 3t-18.5 9v36v56.5t-0.5 71.5t-0.5 81h-44t-53.5 0.5t-53.5 0.5h-45v-146.5t1 -99.5q0 -6 -18.5 -9t-40.5 -3t-40.5 3t-18.5 9v666q0 11 6 16t13 5h397q11 0 13 -6.5t2 -14.5zM346 378
q0 54 0.5 105.5t0.5 95.5h-197v-201h196zM454 807q-32 -6 -66 -2t-69.5 11l-71 14.5t-70.5 9.5t-69 -5t-66 -28q-5 -3 -7 13.5t-2 39t2 43t7 24.5q22 19 52 23t65.5 0t73.5 -12.5t76.5 -15t75.5 -7t69 11.5q5 2 8 -16t3 -41t-2.5 -42.5t-8.5 -20.5z" />
    <glyph glyph-name="Adieresis" unicode="&#xc4;" horiz-adv-x="497" 
d="M464 678v-27.5v-67.5v-96v-112v-116v-107v-86.5v-53.5q0 -6 -18.5 -9t-40 -3t-40 3t-18.5 9v36v56.5t-0.5 71.5t-0.5 81h-44t-53.5 0.5t-53.5 0.5h-45v-146.5t1 -99.5q0 -6 -18.5 -9t-40.5 -3t-40.5 3t-18.5 9v666q0 11 6 16t13 5h397q11 0 13 -6.5t2 -14.5zM346 378
q0 54 0.5 105.5t0.5 95.5h-197v-201h196zM178 921q6 0 9 -19t3 -41.5t-3 -41t-9 -18.5h-122q-6 0 -9 18.5t-3 41t3 41.5t9 19h122zM443 921q6 0 9 -19t3 -41.5t-3 -41t-9 -18.5h-123q-6 0 -8.5 18.5t-2.5 41t2.5 41.5t8.5 19h123z" />
    <glyph glyph-name="Egrave" unicode="&#xc8;" horiz-adv-x="498" 
d="M452 121q6 0 9 -19t3 -41.5t-3 -41.5t-9 -19h-402q-19 0 -19 21v656q0 8 3.5 14t10.5 6h407q6 0 9 -18.5t3 -41t-3 -41t-9 -18.5h-304v-201h203q6 0 8 -19t1.5 -41.5t-4.5 -41t-10 -18.5h-35.5h-52h-57.5h-53v-136h304v0zM455 798q-16 0 -47 0.5t-70 0.5h-82.5h-83.5
t-74 -0.5t-54 -0.5q-6 0 -9 18.5t-3 41t3 41.5t9 19q13 0 44.5 -2.5t72 -7t86 -10.5t86.5 -12t74 -12t48 -10q6 -2 9 -12.5t3 -22.5t-3 -21.5t-9 -9.5z" />
    <glyph glyph-name="Eacute" unicode="&#xc9;" horiz-adv-x="498" 
d="M452 121q6 0 9 -19t3 -41.5t-3 -41.5t-9 -19h-402q-19 0 -19 21v656q0 8 3.5 14t10.5 6h407q6 0 9 -18.5t3 -41t-3 -41t-9 -18.5h-304v-201h203q6 0 8 -19t1.5 -41.5t-4.5 -41t-10 -18.5h-35.5h-52h-57.5h-53v-136h304v0zM44 799q-6 0 -8.5 9.5t-2.5 21.5t3 22.5t8 12.5
q15 4 48 10t74.5 12l87 12t86 10.5t72 7t44.5 2.5q6 0 9 -19t3 -41.5t-3 -41t-9 -18.5q-20 0 -54 0.5t-74 0.5h-83.5h-82.5t-70.5 -0.5t-47.5 -0.5z" />
    <glyph glyph-name="Ecircumflex" unicode="&#xca;" horiz-adv-x="498" 
d="M452 121q6 0 9 -19t3 -41.5t-3 -41.5t-9 -19h-402q-19 0 -19 21v656q0 8 3.5 14t10.5 6h407q6 0 9 -18.5t3 -41t-3 -41t-9 -18.5h-304v-201h203q6 0 8 -19t1.5 -41.5t-4.5 -41t-10 -18.5h-35.5h-52h-57.5h-53v-136h304v0zM246 842q-8 -1 -34 -5t-57.5 -10.5t-62 -14
t-45.5 -14.5q-5 -3 -8 15t-3 40.5t2.5 42.5t8.5 22q12 4 39.5 11.5t59 15t60 12.5t40.5 5t40 -5.5t60 -13l61.5 -14.5t44.5 -11q5 -2 8 -21.5t3 -42t-2.5 -40.5t-8.5 -16q-15 5 -46 12.5l-64.5 15t-61 12.5t-34.5 4z" />
    <glyph glyph-name="Edieresis" unicode="&#xcb;" horiz-adv-x="498" 
d="M452 121q6 0 9 -19t3 -41.5t-3 -41.5t-9 -19h-402q-19 0 -19 21v656q0 8 3.5 14t10.5 6h407q6 0 9 -18.5t3 -41t-3 -41t-9 -18.5h-304v-201h203q6 0 8 -19t1.5 -41.5t-4.5 -41t-10 -18.5h-35.5h-52h-57.5h-53v-136h304v0zM179 921q6 0 9 -19t3 -41.5t-3 -41t-9 -18.5
h-122q-6 0 -9 18.5t-3 41t3 41.5t9 19h122zM444 921q6 0 9 -19t3 -41.5t-3 -41t-9 -18.5h-123q-6 0 -8.5 18.5t-2.5 41t2.5 41.5t8.5 19h123z" />
    <glyph glyph-name="Igrave" unicode="&#xcc;" horiz-adv-x="175" 
d="M147 687q0 -37 -0.5 -94t-0.5 -122.5v-135v-132.5t0.5 -113.5t0.5 -77.5q0 -6 -18.5 -9t-40.5 -3t-40.5 3t-18.5 9v675q0 6 18.5 9t40.5 3t40.5 -3t18.5 -9zM209.721 824.276q-9.47754 0 -27.8408 0.4375q-18.3623 0.438477 -41.4639 0.438477h-48.8682h-49.4609
q-23.6943 0 -43.834 -0.438477q-20.1396 -0.4375 -31.9863 -0.4375q-3.55469 0 -5.33105 16.2061q-1.77734 16.207 -1.77734 35.918t1.77734 36.3555q1.77637 16.6445 5.33105 16.6445q7.7002 0 26.3594 -2.18945q18.6582 -2.19043 42.6484 -6.13281t50.9424 -9.19824
q26.9512 -5.25586 51.2373 -10.5127q24.2861 -5.25586 43.834 -10.5117q19.5469 -5.25684 28.4326 -8.76074q3.55371 -1.75195 5.33105 -10.9502q1.77734 -9.19922 1.77734 -19.7109q0 -10.5127 -1.77734 -18.835t-5.33105 -8.32227z" />
    <glyph glyph-name="Iacute" unicode="&#xcd;" horiz-adv-x="175" 
d="M147 687q0 -37 -0.5 -94t-0.5 -122.5v-135v-132.5t0.5 -113.5t0.5 -77.5q0 -6 -18.5 -9t-40.5 -3t-40.5 3t-18.5 9v675q0 6 18.5 9t40.5 3t40.5 -3t18.5 -9zM-22.9893 824.452q-3.31055 0 -4.69043 7.69434q-1.37891 7.69434 -1.37891 17.4141q0 9.71875 1.65527 18.2236
q1.65527 8.50391 4.41406 10.124q8.27734 3.24023 26.4873 8.09961t41.1104 9.71875l48.0088 9.71973q25.1074 4.85938 47.4561 8.50391t39.7314 5.66992q17.3818 2.02441 24.5557 2.02441q3.31055 0 4.9668 -15.3887q1.65527 -15.3887 1.65527 -33.6123t-1.65527 -33.207
q-1.65625 -14.9844 -4.9668 -14.9844q-11.0361 0 -29.7979 0.405273t-40.835 0.405273h-46.0771h-45.5244q-21.5215 0 -38.9033 -0.405273q-17.3828 -0.405273 -26.2119 -0.405273z" />
    <glyph glyph-name="Icircumflex" unicode="&#xce;" horiz-adv-x="175" 
d="M147 687q0 -37 -0.5 -94t-0.5 -122.5v-135v-132.5t0.5 -113.5t0.5 -77.5q0 -6 -18.5 -9t-40.5 -3t-40.5 3t-18.5 9v675q0 6 18.5 9t40.5 3t40.5 -3t18.5 -9zM86.1367 859.437q-4.84473 -0.62793 -20.5879 -3.13965q-15.7441 -2.51172 -34.8184 -6.59375
q-19.0742 -4.08105 -37.543 -8.79102q-18.4688 -4.70898 -27.5518 -9.10449q-3.02734 -1.88379 -4.84375 9.41895q-1.81738 11.3027 -1.81738 25.4316q0 14.1279 1.51465 26.6865q1.51367 12.5586 5.14648 13.8145q7.2666 2.51172 23.9189 7.22168
q16.6514 4.70898 35.7256 9.41797q19.0742 4.70996 36.332 7.84961t24.5244 3.13965q7.26562 0 24.2207 -3.4541q16.9551 -3.45312 36.332 -8.16211l37.2402 -9.10547t26.9453 -6.90723q3.02832 -1.25586 4.84473 -13.501q1.81641 -12.2441 1.81641 -26.373
q0 -14.1279 -1.51367 -25.4307t-5.14746 -10.0469q-9.08203 3.13965 -27.8535 7.84863l-39.0566 9.41992q-20.2852 4.70898 -36.9375 7.84863t-20.8906 2.51172z" />
    <glyph glyph-name="Idieresis" unicode="&#xcf;" horiz-adv-x="175" 
d="M147 687q0 -37 -0.5 -94t-0.5 -122.5v-135v-132.5t0.5 -113.5t0.5 -77.5q0 -6 -18.5 -9t-40.5 -3t-40.5 3t-18.5 9v675q0 6 18.5 9t40.5 3t40.5 -3t18.5 -9zM43.4482 906.953q3.72363 0 5.58496 -14.4453q1.86133 -14.4463 1.86133 -31.5537
q0 -17.1064 -1.86133 -31.1729q-1.86133 -14.0654 -5.58496 -14.0654h-75.7061q-3.72363 0 -5.58496 14.0654q-1.86133 14.0664 -1.86133 31.1729q0 17.1074 1.86133 31.5537q1.86133 14.4453 5.58496 14.4453h75.7061zM207.893 906.953q3.72363 0 5.58496 -14.4453
q1.86133 -14.4463 1.86133 -31.5537q0 -17.1064 -1.86133 -31.1729q-1.86133 -14.0654 -5.58496 -14.0654h-76.3271q-3.72266 0 -5.27441 14.0654q-1.55078 14.0664 -1.55078 31.1729q0 17.1074 1.55078 31.5537q1.55176 14.4453 5.27441 14.4453h76.3271z" />
    <glyph glyph-name="Ntilde" unicode="&#xd1;" horiz-adv-x="488" 
d="M462 12q0 -5 -17 -8t-37.5 -3.5t-39 1.5t-21.5 8l-30 61l-49.5 100l-60.5 122.5l-63 127.5v-123v-117.5v-99.5v-69q0 -6 -18.5 -9t-40.5 -3t-40.5 3t-18.5 9v671q0 8 18.5 11.5t40.5 3t40.5 -4.5t18.5 -10l73 -147l31.5 -65l33 -68l32.5 -66l30 -59q0 59 0.5 120t0.5 116
v99v70q0 6 18.5 10t40 4.5t40 -3t18.5 -11.5v-671zM450 804q-32 -6 -66 -2t-69.5 11l-71 14.5t-70.5 9.5t-69 -5t-66 -28q-5 -3 -7 13.5t-2 39t2 43t7 24.5q22 19 52 23t65.5 0t73.5 -12.5t76.5 -15t75.5 -7t69 11.5q5 2 8 -16t3 -41t-2.5 -42.5t-8.5 -20.5z" />
    <glyph glyph-name="Ograve" unicode="&#xd2;" horiz-adv-x="488" 
d="M462 20q0 -7 -2.5 -13.5t-12.5 -6.5h-407q-3 0 -8.5 3.5t-5.5 11.5v586v82q0 5 2.5 10.5t11.5 5.5h409q8 0 10.5 -5t2.5 -11v-663zM143 122q47 1 100.5 1t101.5 -1q0 48 -0.5 107t-0.5 120.5t0.5 121t0.5 108.5h-202v-457zM450 803q-16 0 -47 0.5t-70 0.5h-82.5h-83.5
t-74 -0.5t-54 -0.5q-6 0 -9 18.5t-3 41t3 41.5t9 19q13 0 44.5 -2.5t72 -7t86 -10.5t86.5 -12t74 -12t48 -10q6 -2 9 -12.5t3 -22.5t-3 -21.5t-9 -9.5z" />
    <glyph glyph-name="Oacute" unicode="&#xd3;" horiz-adv-x="488" 
d="M462 20q0 -7 -2.5 -13.5t-12.5 -6.5h-407q-3 0 -8.5 3.5t-5.5 11.5v586v82q0 5 2.5 10.5t11.5 5.5h409q8 0 10.5 -5t2.5 -11v-663zM143 122q47 1 100.5 1t101.5 -1q0 48 -0.5 107t-0.5 120.5t0.5 121t0.5 108.5h-202v-457zM39 801q-6 0 -8.5 9.5t-2.5 21.5t3 22.5t8 12.5
q15 4 48 10t74.5 12l87 12t86 10.5t72 7t44.5 2.5q6 0 9 -19t3 -41.5t-3 -41t-9 -18.5q-20 0 -54 0.5t-74 0.5h-83.5h-82.5t-70.5 -0.5t-47.5 -0.5z" />
    <glyph glyph-name="Ocircumflex" unicode="&#xd4;" horiz-adv-x="488" 
d="M462 20q0 -7 -2.5 -13.5t-12.5 -6.5h-407q-3 0 -8.5 3.5t-5.5 11.5v586v82q0 5 2.5 10.5t11.5 5.5h409q8 0 10.5 -5t2.5 -11v-663zM143 122q47 1 100.5 1t101.5 -1q0 48 -0.5 107t-0.5 120.5t0.5 121t0.5 108.5h-202v-457zM241 845q-8 -1 -34 -5t-57.5 -10.5t-62 -14
t-45.5 -14.5q-5 -3 -8 15t-3 40.5t2.5 42.5t8.5 22q12 4 39.5 11.5t59 15t60 12.5t40.5 5t40 -5.5t60 -13l61.5 -14.5t44.5 -11q5 -2 8 -21.5t3 -42t-2.5 -40.5t-8.5 -16q-15 5 -46 12.5l-64.5 15t-61 12.5t-34.5 4z" />
    <glyph glyph-name="Otilde" unicode="&#xd5;" horiz-adv-x="488" 
d="M462 20q0 -7 -2.5 -13.5t-12.5 -6.5h-407q-3 0 -8.5 3.5t-5.5 11.5v586v82q0 5 2.5 10.5t11.5 5.5h409q8 0 10.5 -5t2.5 -11v-663zM143 122q47 1 100.5 1t101.5 -1q0 48 -0.5 107t-0.5 120.5t0.5 121t0.5 108.5h-202v-457zM450 807q-32 -6 -66 -2t-69.5 11l-71 14.5
t-70.5 9.5t-69 -5t-66 -28q-5 -3 -7 13.5t-2 39t2 43t7 24.5q22 19 52 23t65.5 0t73.5 -12.5t76.5 -15t75.5 -7t69 11.5q5 2 8 -16t3 -41t-2.5 -42.5t-8.5 -20.5z" />
    <glyph glyph-name="Odieresis" unicode="&#xd6;" horiz-adv-x="488" 
d="M462 20q0 -7 -2.5 -13.5t-12.5 -6.5h-407q-3 0 -8.5 3.5t-5.5 11.5v586v82q0 5 2.5 10.5t11.5 5.5h409q8 0 10.5 -5t2.5 -11v-663zM143 122q47 1 100.5 1t101.5 -1q0 48 -0.5 107t-0.5 120.5t0.5 121t0.5 108.5h-202v-457zM174 923q6 0 9 -19t3 -41.5t-3 -41t-9 -18.5
h-122q-6 0 -9 18.5t-3 41t3 41.5t9 19h122zM439 923q6 0 9 -19t3 -41.5t-3 -41t-9 -18.5h-123q-6 0 -8.5 18.5t-2.5 41t2.5 41.5t8.5 19h123z" />
    <glyph glyph-name="Ugrave" unicode="&#xd9;" horiz-adv-x="482" 
d="M460 20q0 -12 -8.5 -16t-13.5 -4h-402q-5 0 -9.5 4t-4.5 11v673q0 6 18.5 9t41 3t41 -3t18.5 -9q0 -44 -0.5 -113.5t-0.5 -149t0.5 -159.5t0.5 -144h201v566q0 6 18.5 9t40.5 3t40.5 -3t18.5 -9v-668zM447 801q-16 0 -47 0.5t-70 0.5h-82.5h-83.5t-74 -0.5t-54 -0.5
q-6 0 -9 18.5t-3 41t3 41.5t9 19q13 0 44.5 -2.5t72 -7t86 -10.5t86.5 -12t74 -12t48 -10q6 -2 9 -12.5t3 -22.5t-3 -21.5t-9 -9.5z" />
    <glyph glyph-name="Uacute" unicode="&#xda;" horiz-adv-x="482" 
d="M460 20q0 -12 -8.5 -16t-13.5 -4h-402q-5 0 -9.5 4t-4.5 11v673q0 6 18.5 9t41 3t41 -3t18.5 -9q0 -44 -0.5 -113.5t-0.5 -149t0.5 -159.5t0.5 -144h201v566q0 6 18.5 9t40.5 3t40.5 -3t18.5 -9v-668zM36 801q-6 0 -8.5 9.5t-2.5 21.5t3 22.5t8 12.5q15 4 48 10t74.5 12
l87 12t86 10.5t72 7t44.5 2.5q6 0 9 -19t3 -41.5t-3 -41t-9 -18.5q-20 0 -54 0.5t-74 0.5h-83.5h-82.5t-70.5 -0.5t-47.5 -0.5z" />
    <glyph glyph-name="Ucircumflex" unicode="&#xdb;" horiz-adv-x="482" 
d="M460 20q0 -12 -8.5 -16t-13.5 -4h-402q-5 0 -9.5 4t-4.5 11v673q0 6 18.5 9t41 3t41 -3t18.5 -9q0 -44 -0.5 -113.5t-0.5 -149t0.5 -159.5t0.5 -144h201v566q0 6 18.5 9t40.5 3t40.5 -3t18.5 -9v-668zM238 846q-8 -1 -34 -5t-57.5 -10.5t-62 -14t-45.5 -14.5q-5 -3 -8 15
t-3 40.5t2.5 42.5t8.5 22q12 4 39.5 11.5t59 15t60 12.5t40.5 5t40 -5.5t60 -13l61.5 -14.5t44.5 -11q5 -2 8 -21.5t3 -42t-2.5 -40.5t-8.5 -16q-15 5 -46 12.5l-64.5 15t-61 12.5t-34.5 4z" />
    <glyph glyph-name="Udieresis" unicode="&#xdc;" horiz-adv-x="482" 
d="M460 20q0 -12 -8.5 -16t-13.5 -4h-402q-5 0 -9.5 4t-4.5 11v673q0 6 18.5 9t41 3t41 -3t18.5 -9q0 -44 -0.5 -113.5t-0.5 -149t0.5 -159.5t0.5 -144h201v566q0 6 18.5 9t40.5 3t40.5 -3t18.5 -9v-668zM171 922q6 0 9 -19t3 -41.5t-3 -41t-9 -18.5h-122q-6 0 -9 18.5
t-3 41t3 41.5t9 19h122zM436 922q6 0 9 -19t3 -41.5t-3 -41t-9 -18.5h-123q-6 0 -8.5 18.5t-2.5 41t2.5 41.5t8.5 19h123z" />
    <glyph glyph-name="Yacute" unicode="&#xdd;" horiz-adv-x="473" 
d="M356 698q3 5 20.5 -2t36.5 -19t33.5 -24.5t11.5 -18.5l-40.5 -72.5l-43.5 -75.5l-43 -75l-39 -71v-332q0 -4 -17.5 -6t-39 -2t-39 2t-17.5 6q-1 75 -1 161.5t1 175.5l-40 68l-42 73l-42.5 73.5l-40.5 69.5q-3 5 10.5 19t31.5 27.5t35 22t21 2.5l67 -107l65 -109
l56.5 106.5zM32 800q-6 0 -8.5 9.5t-2.5 21.5t3 22.5t8 12.5q15 4 48 10t74.5 12l87 12t86 10.5t72 7t44.5 2.5q6 0 9 -19t3 -41.5t-3 -41t-9 -18.5q-20 0 -54 0.5t-74 0.5h-83.5h-82.5t-70.5 -0.5t-47.5 -0.5z" />
    <glyph glyph-name="Ydieresis" unicode="&#x178;" horiz-adv-x="473" 
d="M356 698q3 5 20.5 -2t36.5 -19t33.5 -24.5t11.5 -18.5l-40.5 -72.5l-43.5 -75.5l-43 -75l-39 -71v-332q0 -4 -17.5 -6t-39 -2t-39 2t-17.5 6q-1 75 -1 161.5t1 175.5l-40 68l-42 73l-42.5 73.5l-40.5 69.5q-3 5 10.5 19t31.5 27.5t35 22t21 2.5l67 -107l65 -109
l56.5 106.5zM166 921q6 0 9 -19t3 -41.5t-3 -41t-9 -18.5h-122q-6 0 -9 18.5t-3 41t3 41.5t9 19h122zM431 921q6 0 9 -19t3 -41.5t-3 -41t-9 -18.5h-123q-6 0 -8.5 18.5t-2.5 41t2.5 41.5t8.5 19h123z" />
    <glyph glyph-name="A" unicode="A" horiz-adv-x="497" 
d="M464 678v-27.5v-67.5v-96v-112v-116v-107v-86.5v-53.5q0 -6 -18.5 -9t-40 -3t-40 3t-18.5 9v36v56.5t-0.5 71.5t-0.5 81h-44t-53.5 0.5t-53.5 0.5h-45v-146.5t1 -99.5q0 -6 -18.5 -9t-40.5 -3t-40.5 3t-18.5 9v666q0 11 6 16t13 5h397q11 0 13 -6.5t2 -14.5zM346 378
q0 54 0.5 105.5t0.5 95.5h-197v-201h196z" />
    <glyph glyph-name="B" unicode="B" horiz-adv-x="510" 
d="M476 21q0 -9 -3 -15t-13 -6h-411q-6 0 -9 19t-3 41.5t3 41.5t9 19h10v457h-10q-6 0 -9.5 18.5t-3.5 41t2.5 41t8.5 18.5h412q7 0 12 -5t5 -15v-656zM176 578v-201h182v201h-182zM358 121v135h-38.5t-47.5 0.5t-50 0.5h-46v-136h182z" />
    <glyph glyph-name="C" unicode="C" horiz-adv-x="500" 
d="M453 121q6 0 9 -19t3 -41.5t-3 -41.5t-9 -19h-406q-8 0 -11.5 6.5t-3.5 14.5v655q0 8 3 15t16 7q12 0 43.5 -0.5t72 -0.5h85.5h85.5t71.5 0.5t44 0.5q6 0 9 -19t3 -41.5t-3 -41t-9 -18.5h-304v-457h89.5h90.5h76.5h47.5z" />
    </font>
</defs>
</svg>
